/* XPM */
static char *f297f6141e92483bc6bff2b695f8791cJxVcDe2e718onTlh[] = {
/* columns rows colors chars-per-pixel */
"50 50 206 2 ",
"   c None",
".  c #010000",
"X  c #0A0402",
"o  c #0D0804",
"O  c #050A07",
"+  c #120202",
"@  c #190300",
"#  c #120A05",
"$  c #190C05",
"%  c #190F08",
"&  c #091A0B",
"*  c #141107",
"=  c #1D1007",
"-  c #1B1409",
";  c #15180D",
":  c #191211",
">  c #1F1813",
",  c #210300",
"<  c #2A0C04",
"1  c #320F04",
"2  c #2B150A",
"3  c #2B1A0C",
"4  c #24170C",
"5  c #33160B",
"6  c #341C0C",
"7  c #3A1B0C",
"8  c #381409",
"9  c #251C16",
"0  c #341E11",
"q  c #0E200E",
"w  c #15210E",
"e  c #0F2410",
"r  c #142C13",
"t  c #182A12",
"y  c #153A19",
"u  c #193718",
"i  c #0E3618",
"p  c #282209",
"a  c #3A250F",
"s  c #2E251B",
"d  c #3A2412",
"f  c #34261B",
"g  c #3A2B1B",
"h  c #372417",
"j  c #253415",
"k  c #29351B",
"l  c #233D1B",
"z  c #283C1B",
"x  c #373119",
"c  c #372B26",
"v  c #3C3228",
"b  c #322F30",
"n  c #2A3230",
"m  c #2B2E30",
"M  c #401E11",
"N  c #422312",
"B  c #492511",
"V  c #432A13",
"C  c #4E2C16",
"Z  c #552A15",
"A  c #453D1C",
"S  c #5A3A1C",
"D  c #43290E",
"F  c #643B1D",
"G  c #762D09",
"H  c #4B2F23",
"J  c #4B3827",
"K  c #513923",
"L  c #5D3C23",
"P  c #493F3D",
"I  c #573E33",
"U  c #673922",
"Y  c #23431E",
"T  c #2C421E",
"R  c #2D4312",
"E  c #2B4720",
"W  c #264A21",
"Q  c #2D4E23",
"!  c #214720",
"~  c #394E22",
"^  c #2B5625",
"/  c #305125",
"(  c #345A29",
")  c #2F652E",
"_  c #3B642E",
"`  c #39652A",
"'  c #3A6D32",
"]  c #3A7235",
"[  c #39773A",
"{  c #47431E",
"}  c #6C451D",
"|  c #64411C",
" . c #71481E",
".. c #454A22",
"X. c #554826",
"o. c #564433",
"O. c #405C3F",
"+. c #50512F",
"@. c #634425",
"#. c #68462A",
"$. c #734927",
"%. c #7A4D24",
"&. c #744C2A",
"*. c #7A4D29",
"=. c #724726",
"-. c #77502E",
";. c #6D4C32",
":. c #704F33",
">. c #68553C",
",. c #7C5434",
"<. c #775839",
"1. c #44642D",
"2. c #4C6B31",
"3. c #516F33",
"4. c #457B38",
"5. c #4A7D39",
"6. c #467837",
"7. c #547D3A",
"8. c #5A753A",
"9. c #7B693E",
"0. c #2C374B",
"q. c #503E4A",
"w. c #5B4F4B",
"e. c #5C504E",
"r. c #425345",
"t. c #624646",
"y. c #6E5F41",
"u. c #6B5C59",
"i. c #74675E",
"p. c #832C06",
"a. c #8E5B27",
"s. c #82552D",
"d. c #875628",
"f. c #895B32",
"g. c #935F29",
"h. c #9A632A",
"j. c #89623A",
"k. c #A1743E",
"l. c #B17332",
"z. c #A1682D",
"x. c #CB4514",
"c. c #F96417",
"v. c #DA6A27",
"b. c #E4752D",
"n. c #866647",
"m. c #9B6A40",
"M. c #9B724B",
"N. c #8D7F59",
"B. c #9B7B53",
"V. c #946C53",
"C. c #A57748",
"Z. c #A47A57",
"A. c #816E68",
"S. c #4C823C",
"D. c #54833C",
"F. c #7C843B",
"G. c #4F8F42",
"H. c #568D41",
"J. c #569042",
"K. c #729445",
"L. c #8E853E",
"P. c #AA833F",
"I. c #8C9847",
"U. c #B78959",
"Y. c #A58F4E",
"T. c #9CA44D",
"R. c #95AB50",
"E. c #A6B151",
"W. c #BCB656",
"Q. c #988A62",
"!. c #BB8F65",
"~. c #A79868",
"^. c #AF9567",
"/. c #C49F50",
"(. c #C6BB58",
"). c #C5B957",
"_. c #D0BC59",
"`. c #C39C70",
"'. c #D29B67",
"]. c #C8AA77",
"[. c #DBB67A",
"{. c #D2AD78",
"}. c #E2B87E",
"|. c #C9C75D",
" X c #D4CA5E",
".X c #D6C75C",
"XX c #D2D261",
"oX c #F6C87F",
"OX c #DBB282",
"+X c #F0BF8B",
"@X c #EABA85",
"#X c #DAC186",
"$X c #EBC688",
"%X c #FCC78B",
"&X c #FCCF92",
"*X c #FADB98",
"=X c #FFE39D",
"-X c #FFE596",
";X c #FFE5A2",
":X c #FFE9A2",
">X c #FFFDB1",
",X c #FFFFBC",
"<X c #FFFFC4",
"1X c #FFFFCA",
"2X c #FFFFD8",
"3X c white",
/* pixels */
"                                                                                                    ",
"                                                                                                    ",
"                                                                                                    ",
"                                                                                                    ",
"                                                                                                    ",
"                                                                                                    ",
"                                                                                                    ",
"                                                                                                    ",
"                                                                                                    ",
"                                                                                                    ",
"                                          . . . . . . .                                             ",
"                                        X = 4 = 0 d h d X                                           ",
"                                      X 4 d N 7 F f.f.f.4 X                                         ",
"                                    . 2 d 3 1 N 7 C *.%.C $ .                                       ",
"                                    . 0 B 8 U $Xy.@ 5 8 7 $ .                                       ",
"                                    . 2 B -.[.,X$XZ.M.!.$X>..                                       ",
"                                    . 5 Z C.>X!.U.@X&XU.$Xy..                                       ",
"                                    . @.s.m.*Xo.X n.;XJ < $ .                                       ",
"                                    . `.`. .+X3X0.p ,X3Xm . .                                       ",
"                                    . OX'.s.*X2Xn * ;X2Xm . .                                       ",
"                                    . n.*.:.=X-X~.^.%XoX~.v .                                       ",
"                                    . + , U {.:X=X}.Z.C.>XQ..                                       ",
"                                    . . # N $.*XU.F F $.*XQ..                                       ",
"                              . . . l Y ; . . $.[.:X-X=XU.6 .                                       ",
"                            . G p.. Y / r q q X :.Q.B.Z.a .                                         ",
"                            8 v.b.3 q r ! ^ l O . , 1 . .                                           ",
"                          . x.b.k.U . t 7.7.Y Y & . 5 * ; *                                         ",
"                          . c.v.g . r F..XW.' ' 5.r X _.|.{ .                                       ",
"                            8 Z 5 . u ~ 3.I.|.W..X(.Y.K.2.; .                                       ",
"                              O p ! ( l i ` T.T.L.I.R.[ ) l * .                                     ",
"                              . e G.H.l w Y ] ] y y ] _ _ ( r .                                     ",
"                              . w H.4.O O T 6.S.Y Y 6.l . w l .                                     ",
"                              . x XXS.O . ^ 5.5.E / 5.l . +.F..                                     ",
"                            . g j.U.XXp . / S.5.E u / l . S P.| .                                   ",
"                            . @.k.#.Y.w O W _ 4._ Y u u . c V.n.b o.                                ",
"                            . X.j.f . X k z j 2.D.1.z T . c A.i.u.u.u.u.u.u.i.e.b b 9 o .           ",
"                            . K k.&.. 4 Z M N =.*.*.s.*.. g C.j.O                 . d. ..           ",
"                            . n.%X&X#Xf o j j B t.t.Z Z X X # X . .               . a.%..           ",
"                            . Z.,X1X1X9 . [ r.8 +._ f ~ . X N S =.$ .           . | F a             ",
"                            . >.].].].J z 8.q.g ( ) y [ z N  .a.g.V 6 3         d a.4               ",
"                              . . . . F.Y.U Z 7.J.1.T S.E.X.. . . a h.g.X o o a z.o                 ",
"                                    . g t.i..XXX X.X X Xy.: .     X # - | h.l.%.#                   ",
"                                  . O c o.I { { A { X.9.o.4 .           4 a V 3                     ",
"                                  X H K d $ . . . . . H :.f .           . . .                       ",
"                                  # *.F $ .         o *.d.0 .                                       ",
"                                  . N s.V .         o *.S $ .                                       ",
"                                  . J f.C .         o *.d.3 .                                       ",
"                                  . o.<.f .         X ;.,.I s .                                     ",
"                                  . f v - .         X s s v s .                                     ",
"                                  . . . . .         . . . . . .                                     "
};
