/* XPM */
static char *_d9babd3336e434b9d3e11e585d37566HG4mV2gNj0cVzYMe[] = {
/* columns rows colors chars-per-pixel */
"50 50 205 2 ",
"   c #131C00",
".  c #1D1C04",
"X  c #141502",
"o  c #231906",
"O  c #291609",
"+  c #251B08",
"@  c #2C1B0C",
"#  c #311E0D",
"$  c #0D2000",
"%  c #0B2D00",
"&  c #142102",
"*  c #1C2506",
"=  c #162B03",
"-  c #1C2C04",
";  c #1E270A",
":  c #1E2B09",
">  c #0F3300",
",  c #0C3800",
"<  c #143303",
"1  c #1C3405",
"2  c #153C03",
"3  c #1B3C05",
"4  c #1E3508",
"5  c #1C3B08",
"6  c #232606",
"7  c #222D06",
"8  c #282F07",
"9  c #242409",
"0  c #2C240B",
"q  c #242C09",
"w  c #2B2B0B",
"e  c #34240F",
"r  c #39270F",
"t  c #322B0E",
"y  c #233206",
"u  c #233B06",
"i  c #25330A",
"p  c #2B340C",
"a  c #243C0A",
"s  c #2B3C0D",
"d  c #31330F",
"f  c #313A0F",
"g  c #342610",
"h  c #3B2311",
"j  c #352C12",
"k  c #3C2C15",
"l  c #2E3411",
"z  c #273E10",
"x  c #2D3D11",
"c  c #343412",
"v  c #3A3414",
"b  c #343C12",
"n  c #3B3B15",
"m  c #3F331A",
"M  c #3F3B18",
"N  c #411F14",
"B  c #442B17",
"V  c #452618",
"C  c #4B2C1B",
"Z  c #4B2319",
"A  c #423216",
"S  c #413B16",
"D  c #433419",
"F  c #4C341C",
"G  c #453D1B",
"H  c #4B3B1C",
"J  c #51351C",
"K  c #4E3521",
"L  c #5B3622",
"P  c #583825",
"I  c #543523",
"U  c #603E24",
"Y  c #144403",
"T  c #1C4306",
"R  c #144A04",
"E  c #1B4B06",
"W  c #1D4309",
"Q  c #1D4B09",
"!  c #135404",
"~  c #1B5205",
"^  c #1B5B06",
"/  c #1E550A",
"(  c #1D5B09",
")  c #214307",
"_  c #204B06",
"`  c #24440A",
"'  c #2B440D",
"]  c #244C0B",
"[  c #2B4C0E",
"{  c #32450F",
"}  c #314A0F",
"|  c #215107",
" . c #24530C",
".. c #2A530E",
"X. c #245C0D",
"o. c #2A5B0E",
"O. c #30520F",
"+. c #274310",
"@. c #2D4411",
"#. c #274E10",
"$. c #2D4D11",
"%. c #2F4919",
"&. c #344412",
"*. c #3B4415",
"=. c #334C13",
"-. c #3B4B16",
";. c #364418",
":. c #3D4419",
">. c #364C19",
",. c #3C4B1A",
"<. c #265211",
"1. c #2D5312",
"2. c #265A10",
"3. c #2C5B12",
"4. c #335314",
"5. c #395316",
"6. c #335B15",
"7. c #395A17",
"8. c #375619",
"9. c #3C541A",
"0. c #365D19",
"q. c #3B5C1A",
"w. c #1A6006",
"e. c #1C650A",
"r. c #1D6C08",
"t. c #25610D",
"y. c #29610E",
"u. c #24690D",
"i. c #2A6E0F",
"p. c #25710D",
"a. c #276411",
"s. c #2C6313",
"d. c #266C10",
"f. c #2C6B13",
"g. c #336316",
"h. c #3A6217",
"j. c #326B16",
"k. c #366318",
"l. c #3B641B",
"z. c #356B19",
"x. c #3B6B1C",
"c. c #2B7313",
"v. c #2D7915",
"b. c #327117",
"n. c #307816",
"m. c #357419",
"M. c #3B731D",
"N. c #357B1A",
"B. c #3B7B1D",
"V. c #3F7421",
"C. c #3E7D20",
"Z. c #404317",
"A. c #434917",
"S. c #43431A",
"D. c #49431D",
"F. c #424B1B",
"G. c #494D1D",
"H. c #43531C",
"J. c #435B1D",
"K. c #485D1E",
"L. c #42641E",
"P. c #48611E",
"I. c #426A1F",
"U. c #41731F",
"Y. c #434920",
"T. c #4E4F21",
"R. c #474524",
"E. c #544321",
"W. c #5D4726",
"Q. c #524B20",
"!. c #5B4B26",
"~. c #475320",
"^. c #4B5321",
"/. c #455B20",
"(. c #4B5B22",
"). c #4F5728",
"_. c #535C26",
"`. c #56532A",
"'. c #5F5430",
"]. c #64432F",
"[. c #625B2C",
"{. c #715E37",
"}. c #436421",
"|. c #496323",
" X c #436C21",
".X c #4A6C25",
"XX c #4F6B2D",
"oX c #5C612D",
"OX c #596A28",
"+X c #546929",
"@X c #427422",
"#X c #487526",
"$X c #437B23",
"%X c #487924",
"&X c #4A7828",
"*X c #4B722A",
"=X c #54772C",
"-X c #606633",
";X c #646B36",
":X c #31891A",
">X c #36821C",
",X c #3D8421",
"<X c #428223",
"1X c #4C832A",
"2X c #56A135",
/* pixels */
"7.z./ * T ` L.5.X...Q  .` T t.4.7.M.q.4.a 8.X.m.2X>.j m.a.<.$X4.' y.L.-.] 3.] W w i 3 Y f A.j.J.[ 5.",
"/.h.c.i.s.2...o.2.k.1.1.) - 1.k.j.o.j.4.p 6.X.M.&X$Xx.1.B.3.f.o.6...h.i ] ] [ 1 O 6 1 1 5.f [ .X7.u ",
"z.b.a.e.j...o.X.a.2.Q o.A v 2 z.3.4.] ..a R 0.L.g.g.j.s.x.$XN.X.3.L.z T o.` y 4 G.S.= 3 A.I H.Q.(.c ",
":.' X.u.a...y.t.i 6.< a H.c ] x.3.' ] 0.2 3.x.q.) Q 1.4 k.@XB.z.g.6.1.a [ #.g.s.b `.F ' E.[.=.&.M } ",
"k } w.i a X._ o.E O...{ 6.7 &.{ 4.` 8.` +.1.j.q.a 3 g.`  .h.h.j.f.o.o.p 7.@X@Xa r b A J.D.3...i @ [ ",
"..[  .;.&.] ~  .' [ X.] [ ] f a ..:.=X] F.$.' x.=._ b.i.R 4.y.b.z.s.o.y.C.V.@.4.].Q.g.{ G.|.A.y ` @.",
"j.j.) A A 6 Y r.o.c r ) ~ s B 4...@XJ.` x.,.' [ s 4 ..1.E _ B.c.` ;.Q Q $Xs.$ ) oXL =.l.9.z.U.B.O.&.",
"q. .p.j.3.3 R u.X.Y w [ p.^ f...1.U.H.$.$.x [ 3.[ ]  ...d =.[ | h.7.] ] l.t.Y * K.g.] ] j.[ [ |.# A ",
"u.e.4.[ ) R X.l 4 & Q <.1.a / ` q.` 4 =.q.J.5 s ` f.) ' 6.=.*  .t.s.o.6.x. .) 3.] u o.W p 3.;Xb b r ",
"X.3.< b $.R Q w % 0 G $.Q . 6.1.` . ` V.k.@Xm.h.6.3.o.6.1 ] 4 j.s.[ ....x.....u.3 7 4 l q 2.k.: J.I.",
"S H.a : o.3.< &.3.] H.=.E = } o.3 p J.h.&.] 2.f.6...4.M. .@ } W W [ ..1 4.' 3.X.2 & l W y <.l.L.-.I.",
"D T.p < .. .m F.x...j ;.3 ] } -.E ..6.c ,.x.7.F.* T 3 x.k.@.8.l 8 j.) = ` { ..k.W 4.9.< @.4.s.4.0 s ",
"k x.n *.] 3 7 { 9.z.*._.,.` p a ] 4.a ` l.K.G.A.@.] ' x.f 6.4.*.8.f.[ ;.O.[ ] m.,X%Xz.3.` p  .] $.p ",
"x.g..X}.u f ' p M ,.1X.X` $.1 a L.g.< ' E.&.w d a Y Q h.=.} J...| z.b.b.f.[ 2.b.z.' q.4.1.$...h.s.v ",
"..4.k H.f.%.[ =.}.-.' ] 1.3.d.9.{ 2 ` |.v 1 S.M &.[ [ k.8.$.4.%.1.&.c.b.m.4.' 7.y.y.b Z.=.6.k.g.[ d ",
"] ' F L 8.s.&.q.' s ] ] k.6.u.o.< Y 4.H.+ @.D.J - ' [ 9.q.4.0. .s R / B.s.h.j.&.u  .D :.=.s 7.4.w *.",
"^ 3 Z.Z i k.0.H...;.H. X6...] z.i.3.@ + v 4.v F * i 5.-.&.' s.1 ] u W j.5 2.m.i 3 f.=.a =.` 1 7.,.J.",
"..Q ..:.1.x.1X XU.q.q.3.a @.u R / W ;.j 4.a @ e V { { s H (...R ] u T s.] ] g.] 1./ 7 A n 4.u t x.@.",
"x.J.4.M.l.3.@X&.L.q.[ o.7 $. .<.` ..Q H.=.J.F W.Q.s ' s j [ = 1 3 & 2 3.) [ x.s.6.3.( x.F n } :.x.q.",
"s q.=.a ] 4.x.}.-...6.2.` m.v.XXF c E b.1X:.F.C Z.} p X T >.%.4.Y Y 1 @./ Q =.6.c. .Q l |.b *.F.7.m.",
"[ ;.b 4.E X.-.l. . .* h.C.N.f.Q 4.l.$Xs.6.~.n V c u < ; ~ l.2 0 B < 2 p +.y...0.<.$.2 . ~./.[ 7.:.=.",
"] u p } 4.T &.h.t.R ..U.X.X.b.^ a.1XM.( ` l.l h S +.! e.h.G.3.S.H &.] h p c.z.s y a.Y 3 c (.[ [ R.D ",
"| 3 h 7 M.[ 6.6.t s.x.m.>X,.8.<.q.7.P.I.%.k.b g G o.<.}..XO M OX&.9.9.j ] X.j.W l f.2 1.F.q.' $.i 1.",
"E 4 h i x.m.l.,.&.g.3.~ W l.x.-.s M >.m.-.X.3.M &.[ W.:.3.9.g E.|...q.8.6.p x.j.b M.R M ^.*XN.k.' f.",
"2 4 s J.l.[ g.u  .1.x.W : 2.h.7.8 p 1.t.x.6.$X$.^ d F.8.& -.F.F A.] # M.C.X...3.4.s.W l.J.J.l.3.3.x.",
"< *.s =.g.s.z.n.Y E ] 1.@X4.{ l.7.6 s a.7.8.M.| 3 q.S.q.1.H.=Xc a g.=...l.x.j...4.9.[ :Xg.b q.@.2 j.",
"q Z.J.U.X.f.M.>X3.3.X.3.p [ ' -.q.u T 4.&.B.o.[ 1.c.k./.7.k :.0.I.q.y.R w a g.j.f.s.x.j.a.8.O.[ <.g.",
"* -.V [ X.s.o...f.} 7.x.w y 4.8 s 7. .W >.k.X.4.X.] v F.6.J.Z.m.8.k ] / ` 3 s ] z.2.F.i o 4.l.2.2.x.",
"..&.0 1.,.w f.2.=.Q - { l.s a y :.F...g.l.J.C...X.f.&.q.q.=.=.<X@.q 2 u.] a ] c $.N.a.i j 7.] 9 $X/.",
"j.X.4 q ).F ` / 3.] _ 4 J.j.7.` q.J.k.4.h.2.j.1.$./ [ x.-.x i.,XV.s.` Q ] ( ` b ] M.s.6.j 7...;.4.4.",
"*.Q ] a -.L s Q <. .1.3 < ..k.3.m.x.3. .1.1 3.q d  .6.M.h.3.d.,.4.$X) 2 X.] 1.$.1.l.$.4.j.l.}.3.0 1.",
"' X.f.Q ' b u T ) ] p j Q |.4.x.3.k.3.X.Q 2 3.g ' k.z.7.g. .o.=.0.}.` W m.3.1 4 3.x.g.p ` 6.;.> o F.",
"X.3. ./ 2.z i ^ u 8.f.8.1.s.h.V.4.6.z.7. .X.m.s.6.6.#.1.4.[ ~ 7.-.x 3.M.a.< a a ] o.3.g.j.s...] =./.",
"^ y ) 8.6.[ ! R H.h., ) .X8.s f.x...8.f ] ^ a.C.x 9 n 8.8.x._ ..7.1.7.3.` [ ..' 4.(.3.| ..6.m.z.$.b ",
"R R ] @X~ f.Q 5 &.Y ` i &.4.| e.B.j.f.d.~ 3 [ x.V.&.F.*.l.#X[ ..l.&.k.g.] i 3 ..7.h.3.....8.C.t.a &.",
"( ) 3.x.q [ 2.3 R ' D.i w $.y Y ..h.s.3 ^ _ ..a ,.s.V.$XU.=.6.[ 4.[ 3.3.` 0 6 s g.*.&.[ i j 8.s.] @.",
"z f V.:.l  .T 3.] F.!.:.9.,.| i.] W l.s @.3.d.Q 8.u j.$X0.s $.s.m.4.2.l.W i v y.h.t ' s k.q.a [ E ..",
"W ] *X).9. .*.L.<.B F &.;.1.~ h.).4 z.k.@.7.3. .1.] s.5 4.O.6.4...p Q k.h.H.1.a.L.&.l ,.|.0.1.z.....",
"b 6.L.s ' 1.G...j.F h c 8.f.s t 7.` 0.k.p 8 u ;.6.6.] u 1.1. X|.7.7.$.x.X.-.3 T 4.9.S.K.-.3 n 8.1.k.",
"v &.J.8 2 D.' Y s..XH.,.a.a.0.` $.8.x.3 a G *.b x.f.0 7.v.4.6.t.p ] ] q.7.X.< k [ b d M.f.W J.3.3 s ",
"d b 8.$.` K ` { ] }.Y.1.3.$XV.7.%XM.a.n i c [.(.6.$.6.z.4.-.A.] ` ` < 1.1.s.[ j p =.' ..6.o.K. .] x.",
"-.4.x.q.$.8 6.b < ) } 1.1.k.g.7.l.] | ~.m i -X|.3.3 $X8 D k H >.n.' i 7.<.% a g.[ H.y.' H.4.f ] s x.",
"u $.h.4.1 / g. .E 2.l.3.x.a.1.h.*.} s E q.l.4.{ B.V.2.@.j v #X1.{ s } =.E , 1.6.' w { j.m.y.) 4.l. X",
"$...@.x < #.H...a u ]  .;.V.l.=Xx.3 ' 6.a.' o.z.$Xm.8. X3.$.1.] Z.-.g./ / ;.T T i S.H.g.L. .[ k.f.3.",
"x.S w u 6.v H ..g.x.1.5 ; 0./.oX6.[ j.g.' X.[ 3.6.q.7.' a.[ q.q.T.Z.u ` j.0 w ^ [ A p { y.k.O.[ )  .",
"' 4.a.l.A.7 n [ 6.d.x.$.X.$.j x.d >.4. .o.X.6 p m.#X1.t. .v {.$X6.p 8 O.5 ;.F b 2 7 t F.i.x.x.3   u ",
"u E i o.k.6.4.@.>.) u x.@X4.6.0.@.x.) ` O.< 4 ) M.g.E ,.` 1 :.@.0.1.j s.4 S q - Y [ G.6.| o.j.i.i b ",
"a x + c H.c E ~ 9.v ] 1.' z.q.,.g.w y T c p / o.l.f.' 8 < ;.j G ,.h.k.) c C ` ! a =.t u  .i.f.g.m.3.",
"p a &.h b /.3.2.@.h &.k.] $./.,.] 4 } T v x.3.[ k.n.s - >.H L !.8.=.[ - s S.,.^ X.Q s : - R ] z.,X..",
"C S 2 j j s.1.H.c ] [ =.j.s h.4.a T  .[ 4.&.{ 6 6.[ t.y.|.g C G.&.i $.) ` M ] 3 l 4.a.` u 2 E <X<Xm."
};
