/* XPM */
static char *c28bd505f1d149eedd5dac037fe1a5b68Tz73sJn1n0P19p7[] = {
/* columns rows colors chars-per-pixel */
"50 50 78 1 ",
"  c None",
". c black",
"X c #010000",
"o c #000100",
"O c #010100",
"+ c #000001",
"@ c #010001",
"# c #000101",
"$ c #010101",
"% c #3F2210",
"& c #482612",
"* c #482712",
"= c #492712",
"- c #482613",
"; c #492613",
": c #482713",
"> c #492713",
", c #492812",
"< c #492912",
"1 c #482813",
"2 c #492813",
"3 c #482913",
"4 c #492913",
"5 c #482B1A",
"6 c #482C1A",
"7 c #482C1B",
"8 c #583018",
"9 c #593018",
"0 c #583118",
"q c #593118",
"w c #583019",
"e c #593019",
"r c #583119",
"t c #593119",
"y c #642E0E",
"u c #652E0F",
"i c #65300E",
"p c #65310E",
"a c #64300F",
"s c #64310F",
"d c #65310F",
"f c #652E10",
"g c #642F10",
"h c #642E11",
"j c #642F11",
"k c #652F11",
"l c #653110",
"z c #643111",
"x c #68381A",
"c c #69381A",
"v c #68391A",
"b c #69391A",
"n c #68381B",
"m c #69381B",
"M c #68391B",
"N c #69391B",
"B c #683E26",
"V c #693E26",
"C c #683F26",
"Z c #683E27",
"A c #693E27",
"S c #693F27",
"D c #904416",
"F c #914416",
"G c #904516",
"H c #914516",
"J c #904417",
"K c #914417",
"L c #904517",
"P c #914517",
"I c #A04616",
"U c #A14616",
"Y c #A04716",
"T c #A14716",
"R c #A04617",
"E c #A14617",
"W c #A04717",
"Q c #A14717",
/* pixels */
"                                                  ",
"                                                  ",
"     ooo@                                 @oo@    ",
"     o&lo                                 o2h@    ",
"     o4do                                 omzo    ",
"     o4goo@ooooooooo@ooo@@@ooo@@ooooooo@ooo-ho    ",
"     oy47>2l>>y>k4&yg2742z>>l>lg=722g>=l>h2&lo    ",
"     ooooooooooo@@ooooooo@@ooooo@@oo@o@@oooooo    ",
"     ooKKKNNNND8NHvYNrKKmNccDKNNNNK0nKNTNeDK@@    ",
"     oooNKnSNNDcvHvKNrKKmSNNDKNZNNKNnLNKNrKooo    ",
"     oZooKnCNrKEKYNKNZKKmSNrKKNZNrKELHbKNZ@oNo    ",
"     ocNooLKKKKKKKKKKKKKKKDDHKKKKKKKKKKHDooNN@    ",
"     orNcoooo@@ooooooo@@oooooooo@oooo@oooorNc@    ",
"     oKKKooo@@@ooooooooo@oooooooo@oooo@oooKKDo    ",
"     oENrooo@oooo@oo@oo@oooooooooooo@oooooYNro    ",
"     oKNNoooo@oooooooo@oo@ooooooooo@ooooooKNNo    ",
"     oTKK@oo@@ooooo@o@@ooooooooooo@oo@o@ooEKKo    ",
"     oNNNo@ooo@@oooooo@oo@oo@o@@oooo@@@oo@NNNo    ",
"     oKKEooooooo@oo@oooo@@o@oooooooooo@oooKKYo    ",
"     @NNN@ooo@o@ooo@o@o@ooooo@oooo@@oo@@oomNNo    ",
"     @Sqroooooooooo@oooooo@o@o@ooo@ooo@@ooSrro    ",
"     @KKKooo@o@ooo@oooo@@@@@ooooooo@ooooooKKKo    ",
"     @KKP@@@oo@o@oo@@@oooo@@@o@o@@@o@@o@ooNNNo    ",
"     @NNN@@o@@@o@@oo@o@ooo@o@ooooo@oooooo@Seeo    ",
"     @Ztro@@ooo@@ooo@oooooo@o@o@@ooo@@o@ooKDKo    ",
"     @KKKoo@@@oooo@oooo@@@@o@@oo@@@@oo@@ooNcco    ",
"     orNno@@@@oo@@@@o@o@@@ooo@oo@@ooo@o@oorNco    ",
"     oKKK@o@@oooooooooo@oo@ooo@o@o@oooooooKKKo    ",
"     oQNroooo@oooo@ooooooo@ooo@oo@@oooooo@ENro    ",
"     oKNN@@@@o@oo@@ooo@oooooooo@@ooo@oo@@@KNN@    ",
"     oYKLo@oo@oo@ooo@oo@@ooo@@oooo@oooooooYDKo    ",
"     oNNn@@ooo@ooo@oo@@@o@ooooooooooo@o@oocNN@    ",
"     oKKYoooo@@oo@@oooooo@oooooo@o@oo@o@ooKKYo    ",
"     oNcNoooo@@oo@@ooooooo@@ooo@oooooo@o@@NNNo    ",
"     oZrr@oo@@ooo@oooooooooo@@ooooo@oo@@o@Sreo    ",
"     oKDKoooooo@ooo@o@ooo@oooo@ooo@oo@oo@@KKDo    ",
"     oNNN@o@@@oooooo@@ooo@@o@oo@@oo@ooooooNNNo    ",
"     oZSNo@@ooo@oooo@o@oo@ooo@@@@o@oooo@ooZSco    ",
"     omcNo@ooo@@ooooo@@oooooooo@ooo@oooooommNo    ",
"     oeNmoo@oooo@oo@@oooooo@@o@ooo@oo@ooooeNmo    ",
"     @LKKooo@o@o@oooooo@@ooo@@@o@o@ooo@@ooKKKo    ",
"     OHNeooooo@oo@oo@@@@o@ooooo@@@ooooooooENro    ",
"     @KNNooo@@ooooo@@oooooo@@o@oooooo@oo@oKNNo    ",
"     @EKKoo@@o@@@@o@@@oo@o@ooo@ooooooo@o@oEKKo    ",
"     @NNmoooooo@ooooooooooo@oo@@@o@oooo@ooNNNo    ",
"     @KKEooo@@@ooooooooo@oo@oo@oooooooooooDDYo    ",
"     omNNoooooo@ooooooooo@@oo@ooooo@oo@oo@NNNo    ",
"     oSeroKQKLKEKKKYKDKKKKKTKKKEKKKYKKKDKoZero    ",
"     @@@@@oo@oo@o@@@oo@@@o@@o@o@oooo@oo@@@@oo@    ",
"                                                  "
};
