/* XPM */
static char *e7edab6942d44b21c201f824364b87637myLEpoHD5eMfNOO[] = {
/* columns rows colors chars-per-pixel */
"50 50 142 2 ",
"   c None",
".  c black",
"X  c #010000",
"o  c #010101",
"O  c #020000",
"+  c #030000",
"@  c #020202",
"#  c gray1",
"$  c #040404",
"%  c gray2",
"&  c #060606",
"*  c #0A0000",
"=  c #0B0000",
"-  c #0C0000",
";  c gray3",
":  c #090909",
">  c gray4",
",  c #0B0B0B",
"<  c #0C0C0C",
"1  c gray6",
"2  c #120101",
"3  c #170101",
"4  c #1B0202",
"5  c #1D0202",
"6  c #111111",
"7  c gray7",
"8  c #161616",
"9  c gray9",
"0  c #181818",
"q  c gray11",
"w  c #240101",
"e  c #2A0101",
"r  c #2F0101",
"t  c #350101",
"y  c #380101",
"u  c #3B0101",
"i  c #3F0101",
"p  c #3C0303",
"a  c #202020",
"s  c #222222",
"d  c #252525",
"f  c #272727",
"g  c #282828",
"h  c gray17",
"j  c #313131",
"k  c gray24",
"l  c #3F3F3F",
"z  c #400101",
"x  c #430101",
"c  c #470101",
"v  c #4A0303",
"b  c #4F0303",
"n  c #5B0202",
"m  c #660202",
"M  c #790202",
"N  c #7B0202",
"B  c #7E0202",
"V  c #4C3B3B",
"C  c gray27",
"Z  c gray29",
"A  c gray33",
"S  c #5B5B5B",
"D  c gray38",
"F  c gray40",
"G  c #890303",
"H  c #940303",
"J  c #A50202",
"K  c #AE0303",
"L  c #B20303",
"P  c #B50303",
"I  c #BA0303",
"U  c #BB0303",
"Y  c #C60303",
"T  c #C20404",
"R  c #C50404",
"E  c #C80404",
"W  c #CC0404",
"Q  c #D50404",
"!  c #E50303",
"~  c #ED0404",
"^  c #F10404",
"/  c #F80404",
"(  c #FF0404",
")  c #838383",
"_  c #868686",
"`  c gray53",
"'  c #888585",
"]  c #8C8B8B",
"[  c #939393",
"{  c gray59",
"}  c #989898",
"|  c #9A9A9A",
" . c #9B9B9B",
".. c gray61",
"X. c #9D9D9D",
"o. c gray62",
"O. c gray63",
"+. c gray65",
"@. c #A7A7A7",
"#. c gray66",
"$. c #A9A9A9",
"%. c #AAAAAA",
"&. c gray68",
"*. c #AFAFAF",
"=. c #B1B1B1",
"-. c #B9B9B9",
";. c gray75",
":. c gray76",
">. c #C3C3C3",
",. c gray78",
"<. c gray79",
"1. c #CACACA",
"2. c #CBCBCB",
"3. c gray80",
"4. c #D5D5D5",
"5. c #D7D7D7",
"6. c #DADADA",
"7. c gray86",
"8. c gainsboro",
"9. c #DDDDDD",
"0. c gray87",
"q. c gray88",
"w. c #E1E1E1",
"e. c #E2E2E2",
"r. c gray89",
"t. c #E6E6E6",
"y. c gray91",
"u. c #E9E9E9",
"i. c #ECECEC",
"p. c gray93",
"a. c #EEEEEE",
"s. c #EFEFEF",
"d. c #F1F1F1",
"f. c #F3F3F3",
"g. c #F4F4F4",
"h. c gray97",
"j. c #F8F8F8",
"k. c #F9F9F9",
"l. c gray98",
"z. c #FBFBFB",
"x. c #FDFDFD",
"c. c white",
/* pixels */
"                                                                                                    ",
"                                                                                                    ",
"                                                                                                    ",
"                                                                                                    ",
"                                                                                                    ",
"                                                                                                    ",
"                                                                                                    ",
"                                                                                                    ",
"                    . . . . . .                                                                     ",
"                    . . . . . .                                                                     ",
"                    . . q 0.0.<.9 . . .                                                             ",
"                    . & *.c.c.i.F . . . .                                                           ",
"                    . & #.c.c.k.>.C q 7 ,                                                           ",
"                    . .  .g.c.k.g.i.0.0. .. .                                                       ",
"                        . C 0.i.q.0.6.0.o.. .                                                       ",
"                          < 6.t.0.6.6.5.{ . .                                                       ",
"                          , :.0.6.0.<._ V . .                                                       ",
"                          & _ <.3.<.o.j 7 . .                                                       ",
"                          . d Z S A g & = u e                                                       ",
"                            . . . . . . i ( L 4                                                     ",
"                              . . . . . t Y K n 5                                                   ",
"                                          2 B / G =                                                 ",
"                                          . x W T m 5                                               ",
"                                              v E ~ H x                                             ",
"                                                b U ^ Q u .                                         ",
"                                                . p R ( M r                                         ",
"                                                    x M L U w . . . . .                             ",
"                                                    . - J ! t . . & < <                             ",
"                                                        r x V ]  .o.+.O.& .                         ",
"                                                        . . _ 4.q.g.k.k.& .                         ",
"                                                        . . #.q.q.y.k.c.#.+.k .                     ",
"                                                        . . *.i.q.0.t.y.d.k.) . .                   ",
"                                                        . . *.g.g.0.{ D _ =.q . .                   ",
"                                                          . *.q.i.q.d , < 0 . . .                   ",
"                                                            7 h ;.6.9 .                             ",
"                                                            . . -.0.9 .                             ",
"                                                                & , . .                             ",
"                                                                . . . .                             ",
"                                                                                                    ",
"                                                                                                    ",
"                                                                                                    ",
"                                                                                                    ",
"                                                                                                    ",
"                                                                                                    ",
"                                                                                                    ",
"                                                                                                    ",
"                                                                                                    ",
"                                                                                                    ",
"                                                                                                    ",
"                                                                                                    "
};
