/* XPM */
static char *result[] = {
/* columns rows colors chars-per-pixel */
"50 50 196 2 ",
"   c #050F3B",
".  c #00003D",
"X  c #06103F",
"o  c #141B3F",
"O  c #37373D",
"+  c #3B373A",
"@  c #473A37",
"#  c #4A3B3B",
"$  c #403D3A",
"%  c #76701E",
"&  c #5B4F2F",
"*  c #42423C",
"=  c #544133",
"-  c #564635",
";  c #734B25",
":  c #744C2F",
">  c #6F5F2E",
",  c #7A542A",
"<  c #634934",
"1  c #605531",
"2  c #715032",
"3  c #716F20",
"4  c #77652D",
"5  c #717426",
"6  c #7F7724",
"7  c #7E7E2E",
"8  c #776837",
"9  c #746731",
"0  c #707B32",
"q  c #00024D",
"w  c #000A4B",
"e  c #000345",
"r  c #04184B",
"t  c #081748",
"y  c #131C44",
"u  c #191F40",
"i  c #121E4C",
"p  c #000F5C",
"a  c #021454",
"s  c #031955",
"d  c #00125A",
"f  c #02195C",
"g  c #0A1B57",
"h  c #142146",
"j  c #1A2343",
"k  c #15214B",
"l  c #1B244D",
"z  c #0F2152",
"x  c #152452",
"c  c #192859",
"v  c #202642",
"b  c #303240",
"n  c #373944",
"m  c #252D4D",
"M  c #000A60",
"N  c #001561",
"B  c #3D404D",
"V  c #3C4657",
"C  c #4F4F4E",
"Z  c #45474B",
"A  c #484C56",
"S  c #51595E",
"D  c #5F615B",
"F  c #945C1B",
"G  c #85741D",
"H  c #88751B",
"J  c #947C1D",
"K  c #9B7D19",
"L  c #8E6C15",
"P  c #A47A00",
"I  c #A66C1A",
"U  c #AB6E19",
"Y  c #A37E13",
"T  c #A57F19",
"R  c #BB7718",
"E  c #925E20",
"W  c #926224",
"Q  c #897920",
"!  c #877C27",
"~  c #907E23",
"^  c #9C7029",
"/  c #886A32",
"(  c #927135",
")  c #C2791C",
"_  c #9B801E",
"`  c #AA830A",
"'  c #B18705",
"]  c #AE8317",
"[  c #AE8A15",
"{  c #A3841D",
"}  c #AB871C",
"|  c #A38416",
" . c #B08516",
".. c #B28D14",
"X. c #B5881A",
"o. c #B88718",
"O. c #B79315",
"+. c #8B8029",
"@. c #938126",
"#. c #9B8323",
"$. c #98872B",
"%. c #9A8D34",
"&. c #A58A27",
"*. c #B99629",
"=. c #BCA237",
"-. c #C5870D",
";. c #DA910C",
":. c #C68D15",
">. c #CD8E13",
",. c #D28F10",
"<. c #CA9119",
"1. c #C39911",
"2. c #D19317",
"3. c #E28B04",
"4. c #FF8500",
"5. c #FF8D00",
"6. c #EF9405",
"7. c #E5940A",
"8. c #E8950C",
"9. c #F59004",
"0. c #FF9400",
"q. c #F39A04",
"w. c #FF9A01",
"e. c #F39908",
"r. c #FE9F09",
"t. c #E99810",
"y. c #FFA300",
"u. c #FFAA00",
"i. c #FFA30B",
"p. c #FFB300",
"a. c #FFBB00",
"s. c #FFA616",
"d. c #FCAA1D",
"f. c #FFA31C",
"g. c #FFB21A",
"h. c #FCAD22",
"j. c #F3AE29",
"k. c #FFB223",
"l. c #FFB529",
"z. c #FFBA2C",
"x. c #FDB732",
"c. c #FFC437",
"v. c #9A864E",
"b. c #8C855F",
"n. c #998D59",
"m. c #8D8B69",
"M. c #A49862",
"N. c #B4A869",
"B. c #C3AB43",
"V. c #CEAD42",
"C. c #C9AF4B",
"Z. c #CDB34C",
"A. c #CEB045",
"S. c #D4B549",
"D. c #D7BB4C",
"F. c #D3BC50",
"G. c #F5BF43",
"H. c #D8C058",
"J. c #D8C256",
"K. c #F5C247",
"L. c #F9C64A",
"P. c #FBC548",
"I. c #FACF59",
"U. c #F5CC59",
"Y. c #F9D25E",
"T. c #E2CE63",
"R. c #F9D562",
"E. c #FED966",
"W. c #F7D869",
"Q. c #FAD96A",
"!. c #FBD769",
"~. c #ECDA73",
"^. c #F9DF75",
"/. c #FAE26E",
"(. c #F6E077",
"). c #FCE273",
"_. c #F4E37D",
"`. c #FFEA7F",
"'. c #F8E278",
"]. c #E8E689",
"[. c #FCEC85",
"{. c #F6ED8B",
"}. c #F5E985",
"|. c #FFF581",
" X c #FFFF84",
".X c #FFFF89",
"XX c #FBF08C",
"oX c #F5F395",
"OX c #FAF594",
"+X c #FFFC94",
"@X c #FCFD9B",
"#X c #FCFEA2",
"$X c #F4FEA9",
"%X c #FDFFB1",
"&X c #F7FFB1",
"*X c None",
/* pixels */
"*X*X*X*X*X*X*X*X*X*X*X*X*X*X*X*X*X*X*X*X*X*X*X*X*X*X*X*X*X*X*X*X*X*X*X*X*X*X*X*X*X*X*X*X*X*X*X*X*X*X",
"*X*X*X*X*X*X*X*X*X*X*X*X*X*X*X*X*X*X*X*X*X*X*X*X*X*X*X*X*X*X*X*X*X*X*X*X*X*X*X*X*X*X*X*X*X*X*X*X*X*X",
"*X*X*X*X*X*X*X*X*X*X*X*X*X*X*X*X*X*X*X*X*X*X*X*X*X*X*X*X*X*X*X*X*X*X*X*X*X*X*X*X*X*X*X*X*X*X*X*X*X*X",
"*X*X*X*X*X*X*X*X*X*X*X*X*X*X*X*X*X*X*X*X*X*X*X*X*X*X*X*X*X*X*X*X*X*X*X*X*X*X*X*X*X*X*X*X*X*X*X*X*X*X",
"*X*X*X*X*X*X*X*X*X*X*X*X*X*X*X*X*X*X*X*X*X*X*X*X*X*X*X*X*X*X*X*X*X*X*X*X*X*X*X*X*X*X*X*X*X*X*X*X*X*X",
"*X*X*X*X*X*X*X*X*X*X*X*X*X*X*X*X*X*X*X*X*X*X*X*X*X*X*X*X*X*X*X*X*X*X*X*X*X*X*X*X*X*X*X*X*X*X*X*X*X*X",
"*X*X*X*X*X*X*X*X*X*X*X*X*X*X*X*X*X*X*X*X*X*Xv v v v v v *X*X*X*X*X*X*X*X*X*X*X*X*X*X*X*X*X*X*X*X*X*X",
"*X*X*X*X*X*X*X*X*X*X*X*X*X*X*X*X*X*X*X*X*X*Xy x i u x y *X*X*X*X*X*X*X*X*X*X*X*X*X*X*X*X*X*X*X*X*X*X",
"*X*X*X*X*X*X*X*X*X*X*X*X*X*X*X*X*X*X*X*X*X*Xo k u y y y *X*X*X*X*X*X*X*X*X*X*X*X*X*X*X*X*X*X*X*X*X*X",
"*X*X*X*X*X*X*X*X*X*X*X*X*X*X*X*X*X*X*Xj   Z M.N.M.M.N.M.Z   j *X*X*X*X*X*X*X*X*X*X*X*X*X*X*X*X*X*X*X",
"*X*X*X*X*X*X*X*X*X*X*X*X*X*X*X*X*X*X*Xy e A `..X X X.X|.A w i *X*X*X*X*X*X*X*X*X*X*X*X*X*X*X*X*X*X*X",
"*X*X*X*X*X*X*X*X*X*X*X*X*X*X*X*X*X*X*XX . B `. X|.|..X[.V q r *X*X*X*X*X*X*X*X*X*X*X*X*X*X*X*X*X*X*X",
"*X*X*X*X*X*X*X*X*X*X*X*X*X*X*X*Xj   C b.m.n.Z.A.Z.Z.F.Z.^ E E = r j *X*X*X*X*X*X*X*X*X*X*X*X*X*X*X*X",
"*X*X*X*X*X*X*X*X*X*X*X*X*X*X*X*Xi w D  X+X/._ L J J G K w.p.y.< f x *X*X*X*X*X*X*X*X*X*X*X*X*X*X*X*X",
"*X*X*X*X*X*X*X*X*X*X*X*X*X*X*X*Xa q S  X+X).@.L J H ! K 0.y.w.= d g *X*X*X*X*X*X*X*X*X*X*X*X*X*X*X*X",
"*X*X*X*X*X*X*X*X*X*X*X*X*X*X*X= , : ( F.T.S.:.-.:.:.o.:.j.c.z./ * - $ *X*X*X*X*X*X*X*X*X*X*X*X*X*X*X",
"*X*X*X*X*X*X*X*X*X*X*X*Xo i a , u.p.q.J Q T 0.w.0.w.0.y.Q.@X{.=.Y ..- g l h *X*X*X*X*X*X*X*X*X*X*X*X",
"*X*X*X*X*X*X*X*X*X*X*X*X*Xw q ; p.p.q.Q 5 T 5.0.0.w.0.w.).&XoX=.P ` * d f *X*X*X*X*X*X*X*X*X*X*X*X*X",
"*X*X*X*X*X*X*X*X*X*X*X*XC D S ( e.r.;.o.} <.h.l.d.t.3.7.K.E.I.V.=.=./ - < = *X*X*X*X*X*X*X*X*X*X*X*X",
"*X*X*X*X*X*X*X*X*Xj y t b. X XJ.~ H o.0.5.s.(.+X~.&.G &.6.0.0.I.oX{.z.0.y.E r x j *X*X*X*X*X*X*X*X*X",
"*X*X*X*X*X*X*X*X*Xr d q m.+X@XT.6 5 ] 5.4.i.XX%X].%.3 +.9.5.0.E.&X#Xz.w.y.F d f i *X*X*X*X*X*X*X*X*X",
"*X*X*X*X*X*X*X*X*X@ @ + v./.).S.] | <.s.f.k.R.'.U.*.Y X.7.9.6.K.(.Q.x.s.g.^ b n O *X*X*X*X*X*X*X*X*X",
"*X*X*X*X*X*Xj k y I y.w.>.#.$.:.0.5.h.(.{.U.i.0.w.0.w.0.X.@.&.7.r.0.L.[.`.C.K } > j l v *X*X*X*X*X*X",
"*X*X*X*X*X*Xv c x R a.p.;.H 6 -.w.0.k.{.$XW.0.4.0.w.y.w.} 7 @.3.5.5.L.oXOXF...1.4 l c v *X*X*X*X*X*X",
"*X*X*X*X*X*Xv x k U u.y.,.@.@.:.0.0.h._.oXR.r.0.0.w.w.w.} +.#.7.0.0.L.XX[.Z.| } 4 l l v *X*X*X*X*X*X",
"*X*X*X*X*X*Xv x k U u.y.,.@.@.:.0.0.h._.oX!.0.5.0.w.w.w.X.+.#.7.0.0.L.XX[.S.| ..4 l l v *X*X*X*X*X*X",
"*X*X*X*X*X*Xv c x R a.u.;.H G -.w.0.k.{.$XR.0.4.0.w.w.w.} 7 @.3.5.5.P.@X+XD...1.4 l c v *X*X*X*X*X*X",
"*X*X*X*X*X*Xj x h I y.w.>.$.$.:.0.0.h.(.{.U.r.0.w.w.w.q.o.@.{ 8.w.w.P.}.[.C.K } > j l v *X*X*X*X*X*X",
"*X*X*X*X*X*X*X*X*X@ # + v./.'.S.] T <.s.f.h.Y.).U.*.T o.7.9.6.K.).!.V.*.*.8 b n O *X*X*X*X*X*X*X*X*X",
"*X*X*X*X*X*X*X*X*Xr d q m.+X@XT.6 5 ] 5.4.i.XX%X].%.3 Q 9.0.0.!.&X#XB.P ' & f g i *X*X*X*X*X*X*X*X*X",
"*X*X*X*X*X*X*X*X*Xj y t b. X.XH.K Q o.w.5.s.'.OX~.&.G &.6.0.0.I.OX[.B.| X.1 i l j *X*X*X*X*X*X*X*X*X",
"*X*X*X*X*X*X*X*X*X*X*X*XC D S ( e.e.;.o.&.<.h.k.h.7.3.7.K.!.I.z.l.g./ n * + *X*X*X*X*X*X*X*X*X*X*X*X",
"*X*X*X*X*X*X*X*X*X*X*X*X*Xw q ; p.p.q.+.0 { 0.0.5.0.5.w.).&XOXg.w.w.; d g *X*X*X*X*X*X*X*X*X*X*X*X*X",
"*X*X*X*X*X*X*X*X*X*X*X*Xj i a , u.p.e.@.7 } 0.w.w.0.5.0.W.@X[.g.w.y., s x j *X*X*X*X*X*X*X*X*X*X*X*X",
"*X*X*X*X*X*X*X*X*X*X*X*X*X*X*X= , 2 W ;.t.;.:.o.<.G.I.P.V.B.B./ : , - *X*X*X*X*X*X*X*X*X*X*X*X*X*X*X",
"*X*X*X*X*X*X*X*X*X*X*X*X*X*X*X*Xf M - y.a.w.@.% %.}.#X[.*.P Y O p s *X*X*X*X*X*X*X*X*X*X*X*X*X*X*X*X",
"*X*X*X*X*X*X*X*X*X*X*X*X*X*X*X*Xx f < u.a.w.#.% %.'.@X[.*.' [ Z s x *X*X*X*X*X*X*X*X*X*X*X*X*X*X*X*X",
"*X*X*X*X*X*X*X*X*X*X*X*X*X*X*X*Xj r = W W I >.;.2.V.J.C.8 1 1 + y j *X*X*X*X*X*X*X*X*X*X*X*X*X*X*X*X",
"*X*X*X*X*X*X*X*X*X*X*X*X*X*X*X*X*X*X*Xs M + w.a.y. .| K b f i *X*X*X*X*X*X*X*X*X*X*X*X*X*X*X*X*X*X*X",
"*X*X*X*X*X*X*X*X*X*X*X*X*X*X*X*X*X*X*Xz N # u.a.y.O.O.} n g l *X*X*X*X*X*X*X*X*X*X*X*X*X*X*X*X*X*X*X",
"*X*X*X*X*X*X*X*X*X*X*X*X*X*X*X*X*X*X*Xj r # I ) I 4 9 > O y j *X*X*X*X*X*X*X*X*X*X*X*X*X*X*X*X*X*X*X",
"*X*X*X*X*X*X*X*X*X*X*X*X*X*X*X*X*X*X*X*X*X*Xh x k k m j *X*X*X*X*X*X*X*X*X*X*X*X*X*X*X*X*X*X*X*X*X*X",
"*X*X*X*X*X*X*X*X*X*X*X*X*X*X*X*X*X*X*X*X*X*Xl c l x c l *X*X*X*X*X*X*X*X*X*X*X*X*X*X*X*X*X*X*X*X*X*X",
"*X*X*X*X*X*X*X*X*X*X*X*X*X*X*X*X*X*X*X*X*X*Xj j v v v v *X*X*X*X*X*X*X*X*X*X*X*X*X*X*X*X*X*X*X*X*X*X",
"*X*X*X*X*X*X*X*X*X*X*X*X*X*X*X*X*X*X*X*X*X*X*X*X*X*X*X*X*X*X*X*X*X*X*X*X*X*X*X*X*X*X*X*X*X*X*X*X*X*X",
"*X*X*X*X*X*X*X*X*X*X*X*X*X*X*X*X*X*X*X*X*X*X*X*X*X*X*X*X*X*X*X*X*X*X*X*X*X*X*X*X*X*X*X*X*X*X*X*X*X*X",
"*X*X*X*X*X*X*X*X*X*X*X*X*X*X*X*X*X*X*X*X*X*X*X*X*X*X*X*X*X*X*X*X*X*X*X*X*X*X*X*X*X*X*X*X*X*X*X*X*X*X",
"*X*X*X*X*X*X*X*X*X*X*X*X*X*X*X*X*X*X*X*X*X*X*X*X*X*X*X*X*X*X*X*X*X*X*X*X*X*X*X*X*X*X*X*X*X*X*X*X*X*X",
"*X*X*X*X*X*X*X*X*X*X*X*X*X*X*X*X*X*X*X*X*X*X*X*X*X*X*X*X*X*X*X*X*X*X*X*X*X*X*X*X*X*X*X*X*X*X*X*X*X*X",
"*X*X*X*X*X*X*X*X*X*X*X*X*X*X*X*X*X*X*X*X*X*X*X*X*X*X*X*X*X*X*X*X*X*X*X*X*X*X*X*X*X*X*X*X*X*X*X*X*X*X"
};
