/* XPM */
static char *result[] = {
/* columns rows colors chars-per-pixel */
"50 50 5 1 ",
"  c #0F0B0D",
". c #29111F",
"X c #512D2F",
"o c #794840",
"O c None",
/* pixels */
"OOOOOOOOOOOOOOOOOOOOOOOOOOOOOOOOOOOOOOOOOOOOOOOOOO",
"OOOOOOOOOOOOOOOOOOOOOOOOOOOOOOOOOOOOOOOOOOOOOOOOOO",
"OOOOOOOOOOOOOOOOOOOOOOOOOOOOOOOOOOOOOOOOOOOOOOOOOO",
"OOOOOOOOOOOOOOOOOOOOOOOOOOOOOOOOOOOOOOOOOOOOOOOOOO",
"OOOOOOOOOOOOOOOOOOOOOOOOOOOOOOOOOOOOOOOOOOOOOOOOOO",
"OOOOOOOOOOOOOOOOOOOOOOOOOOOOOOOOOOOOOOOOOOOOOOOOOO",
"OOOOOOOOOOOOOOOOOOOOOOOOOOOOOOOOOOOOOOOOOOOOOOOOOO",
"OOOOOOOOOOOOOOOOOOOOOOOOOOOOOOOOOOOOOOOOOOOOOOOOOO",
"OOOOOOOOOOOOOOOOOOOOOOOOOOOOOOOOOOOOOOOOOOOOOOOOOO",
"OOOOOOOOOOO                            OOOOOOOOOOO",
"OOOOOOOOOO oooooooo ooooooooo ooooooooo OOOOOOOOOO",
"OOOOOOOOOO ooXXXXXX XXXXXXXXX XXXXXXXoo OOOOOOOOOO",
"OOOOOOOOOO oXXXXXXX XXXXXXXXX XXXXXXXXo OOOOOOOOOO",
"OOOOOOOOOO oX                        Xo OOOOOOOOOO",
"OOOOOOOOOOO   ......................   OOOOOOOOOOO",
"OOOOOOOOOO oX ..XXXXXXXXXXXXXXXXXX.. Xo OOOOOOOOOO",
"OOOOOOOOOO oX .XXXXXXXXXXXXXXXXXXXX. Xo OOOOOOOOOO",
"OOOOOOOOOO oX .XXXXXXXXXXXXXXXXXXXX. Xo OOOOOOOOOO",
"OOOOOOOOOO oX .XXXXXXXXXXXXXXXXXXXX. Xo OOOOOOOOOO",
"OOOOOOOOOO oX .XXXXXXXXXXXXXXXXXXXX. Xo OOOOOOOOOO",
"OOOOOOOOOO oX .XXXXXXXXXXXXXXXXXXXX. Xo OOOOOOOOOO",
"OOOOOOOOOO oX .XXXXXXXXXXXXXXXXXXXX. Xo OOOOOOOOOO",
"OOOOOOOOOO oX .XXXXXXXXXXXXXXXXXXXX. Xo OOOOOOOOOO",
"OOOOOOOOOOO   .XXXXXXXXXXXXXXXXXXXX.   OOOOOOOOOOO",
"OOOOOOOOOO oX .XXXXXXXXXXXXXXXXXXXX. Xo OOOOOOOOOO",
"OOOOOOOOOO oX .XXXXXXXXXXXXXXXXXXXX. Xo OOOOOOOOOO",
"OOOOOOOOOO oX .XXXXXXXXXXXXXXXXXXXX. Xo OOOOOOOOOO",
"OOOOOOOOOO oX .XXXXXXXXXXXXXXXXXXXX. Xo OOOOOOOOOO",
"OOOOOOOOOO oX .XXXXXXXXXXXXXXXXXXXX. Xo OOOOOOOOOO",
"OOOOOOOOOO oX .XXXXXXXXXXXXXXXXX  X. Xo OOOOOOOOOO",
"OOOOOOOOOO oX .XXXXXXXXXXXXXXXX XX . Xo OOOOOOOOOO",
"OOOOOOOOOO oX .XXXXXXXXXXXXXXXX .. . Xo OOOOOOOOOO",
"OOOOOOOOOOO   .XXXXXXXXXXXXXXXX.  ..   OOOOOOOOOOO",
"OOOOOOOOOO oX .XXXXXXXXXXXXXXXXX..X. Xo OOOOOOOOOO",
"OOOOOOOOOO oX .XXXXXXXXXXXXXXXXXXXX. Xo OOOOOOOOOO",
"OOOOOOOOOO oX .XXXXXXXXXXXXXXXXXXXX. Xo OOOOOOOOOO",
"OOOOOOOOOO oX .XXXXXXXXXXXXXXXXXXXX. Xo OOOOOOOOOO",
"OOOOOOOOOO oX .XXXXXXXXXXXXXXXXXXXX. Xo OOOOOOOOOO",
"OOOOOOOOOO oX .XXXXXXXXXXXXXXXXXXXX. Xo OOOOOOOOOO",
"OOOOOOOOOO oX .XXXXXXXXXXXXXXXXXXXX. Xo OOOOOOOOOO",
"OOOOOOOOOO oX .XXXXXXXXXXXXXXXXXXXX. Xo OOOOOOOOOO",
"OOOOOOOOOO oX .XXXXXXXXXXXXXXXXXXXX. Xo OOOOOOOOOO",
"OOOOOOOOOO oX .XXXXXXXXXXXXXXXXXXXX. Xo OOOOOOOOOO",
"OOOOOOOOOOO   .XXXXXXXXXXXXXXXXXXXX.   OOOOOOOOOOO",
"OOOOOOOOOO oX .XXXXXXXXXXXXXXXXXXXX. Xo OOOOOOOOOO",
"OOOOOOOOOO oX .XXXXXXXXXXXXXXXXXXXX. Xo OOOOOOOOOO",
"OOOOOOOOOO oX .XXXXXXXXXXXXXXXXXXXX. Xo OOOOOOOOOO",
"OOOOOOOOOO oX .XXXXXXXXXXXXXXXXXXXX. Xo OOOOOOOOOO",
"OOOOOOOOO ooX .XXXXXXXXXXXXXXXXXXXX. Xoo OOOOOOOOO",
"OOOOOOOOO XXX .XXXXXXXXXXXXXXXXXXXX. XXX OOOOOOOOO"
};
