/* XPM */
static char *_7000b1f6ba64606f5b958e7b9b5c5adyPQjbXyW2T9XTeHt[] = {
/* columns rows colors chars-per-pixel */
"50 50 121 2 ",
"   c None",
".  c #4C0000",
"X  c #4E0000",
"o  c #500000",
"O  c #840C00",
"+  c #990000",
"@  c #B00000",
"#  c #BE0A00",
"$  c #B22200",
"%  c #B12D00",
"&  c #CF0600",
"*  c #DA0000",
"=  c #EC0E00",
"-  c #EB1500",
";  c #EE1800",
":  c #F11300",
">  c #C32100",
",  c #E83B00",
"<  c #F33400",
"1  c #894000",
"2  c #AB4E00",
"3  c #D35600",
"4  c #FC5800",
"5  c #FA5F00",
"6  c #C16700",
"7  c #C66B00",
"8  c #D96400",
"9  c #CA7600",
"0  c #D67700",
"q  c #DC7100",
"w  c #D77E00",
"e  c #EB6500",
"r  c #FA6100",
"t  c #F96A00",
"y  c #FF6C00",
"u  c #EB7F00",
"i  c #FA7600",
"p  c #FB7A00",
"a  c #FB7F00",
"s  c #B4A100",
"d  c #B9A700",
"f  c #C08700",
"g  c #D78000",
"h  c #DF9600",
"j  c #DD9F00",
"k  c #E88C00",
"l  c #FE8500",
"z  c #FE8900",
"x  c DarkOrange",
"c  c #E69F00",
"v  c #FF9000",
"b  c #FD9900",
"n  c #FD9C00",
"m  c #C4A100",
"M  c #D7A000",
"N  c #D9A000",
"B  c #DAAF00",
"V  c #DDAE00",
"C  c #C2B700",
"Z  c #C4B900",
"A  c #DEB000",
"S  c #DDBC00",
"D  c #E5AB00",
"F  c #F1A100",
"G  c #F6A100",
"H  c #FCA100",
"J  c #FEA100",
"K  c #FFA400",
"L  c orange",
"P  c #FFA600",
"I  c #F6AC00",
"U  c #F7AE00",
"Y  c #FFA800",
"T  c #FFAB00",
"R  c #FFAC00",
"E  c #FDAE00",
"W  c #FFAF00",
"Q  c #E3B400",
"!  c #E4B600",
"~  c #F7B000",
"^  c #FFB300",
"/  c #FFB500",
"(  c #FFBA00",
")  c #FFBC00",
"_  c #FFBE00",
"`  c #FFBF00",
"'  c #D6CC00",
"]  c #E7C200",
"[  c #E3C500",
"{  c #E3CF00",
"}  c #EDCF00",
"|  c #F0C000",
" . c #F1C600",
".. c #FFC000",
"X. c #FFC300",
"o. c #FFC400",
"O. c #FFC500",
"+. c #FFCB00",
"@. c #F8CC00",
"#. c #FFCD00",
"$. c #FFCF00",
"%. c #FFD300",
"&. c #FFD400",
"*. c gold",
"=. c #FFDA00",
"-. c #FFDD00",
";. c #EEE300",
":. c #FFE200",
">. c #FFE400",
",. c #FFE600",
"<. c #FFE800",
"1. c #FFEF00",
"2. c #FFF200",
"3. c #FEF400",
"4. c #FFF500",
"5. c #FFF600",
"6. c #FFF800",
"7. c #FFF900",
"8. c #FFFD00",
"9. c #FFFE00",
"0. c yellow",
/* pixels */
"                                                                                                    ",
"                                                                                                    ",
"                                                                                                    ",
"                                                                                                    ",
"                                                                                                    ",
"                                                                                                    ",
"                                                                                                    ",
"                                                                                                    ",
"                                                                                                    ",
"                                                                                                    ",
"                                                                                                    ",
"                                                                                                    ",
"                                                                                                    ",
"                                              ' 0.6 .                                               ",
"                                              { 0.x y F Q                                           ",
"                                              [ 0.K T                                               ",
"                                              ! 1.K `                                               ",
"                                              D &.z v 1                                             ",
"                                              c O.5 < E 3.                                          ",
"                                              k / $ o                                               ",
"                                              u T                                                   ",
"                                              e b                                                   ",
"                                              , l                                                   ",
"                                              & 4                                                   ",
"                                              @ ; .                                                 ",
"                                            * = - : +                                               ",
"                                          # r t i a p %                                             ",
"                                        9 b J J J T T K 7                                           ",
"                                      B =.O.I q O 0 ~ X.` 3                                         ",
"                                    f =.3. .          | ,.K >                                       ",
"                                    A 1.3.              0.` 8                                       ",
"                                    S 7.3.              0.O.g                                       ",
"                                    V ,.&.              0.( h                                       ",
"                                    N O.`               :.X.j                                       ",
"                                    w E ^               -.#.M                                       ",
"                                      U E G 2       s 2.7.%.                                        ",
"                                      d @.+.#.] } ;.0.0.,.m                                         ",
"                                          C 0.0.0.0.0.Z                                             ",
"                                                                                                    ",
"                                                                                                    ",
"                                                                                                    ",
"                                                                                                    ",
"                                                                                                    ",
"                                                                                                    ",
"                                                                                                    ",
"                                                                                                    ",
"                                                                                                    ",
"                                                                                                    ",
"                                                                                                    ",
"                                                                                                    "
};
