/* XPM */
static char *_7bfee306642486cd503f86be3a5c8bc8e4ODKEpG2BJ8p5n[] = {
/* columns rows colors chars-per-pixel */
"50 50 93 2 ",
"   c None",
".  c black",
"X  c #010000",
"o  c #000100",
"O  c #010100",
"+  c #000001",
"@  c #010001",
"#  c #000101",
"$  c #010101",
"%  c #281105",
"&  c #3F2210",
"*  c #3E2310",
"=  c #50230B",
"-  c #482612",
";  c #492612",
":  c #492712",
">  c #482613",
",  c #492613",
"<  c #482713",
"1  c #482812",
"2  c #492812",
"3  c #482912",
"4  c #492912",
"5  c #492813",
"6  c #482913",
"7  c #492913",
"8  c #482A1A",
"9  c #492D1A",
"0  c #492C1B",
"q  c #583018",
"w  c #593018",
"e  c #583118",
"r  c #593118",
"t  c #583019",
"y  c #593019",
"u  c #583119",
"i  c #593119",
"p  c #652F0E",
"a  c #642F0F",
"s  c #652F0F",
"d  c #64300E",
"f  c #65300E",
"g  c #64310E",
"h  c #65310E",
"j  c #64310F",
"k  c #65310F",
"l  c #652F10",
"z  c #652E11",
"x  c #642F11",
"c  c #652F11",
"v  c #643010",
"b  c #653010",
"n  c #643110",
"m  c #68381A",
"M  c #69381A",
"N  c #68391A",
"B  c #69391A",
"V  c #68381B",
"C  c #69381B",
"Z  c #68391B",
"A  c #69391B",
"S  c #683E26",
"D  c #693E26",
"F  c #683F26",
"G  c #693F26",
"H  c #683E27",
"J  c #693E27",
"K  c #683F27",
"L  c #693F27",
"P  c #904416",
"I  c #914416",
"U  c #904516",
"Y  c #914516",
"T  c #904417",
"R  c #914417",
"E  c #904517",
"W  c #914517",
"Q  c #A04616",
"!  c #A14616",
"~  c #A04716",
"^  c #A14716",
"/  c #A04617",
"(  c #A14617",
")  c #A04717",
"_  c #A14717",
"`  c #FEC20E",
"'  c #FFC20E",
"]  c #FEC30E",
"[  c #FFC30E",
"{  c #FEC20F",
"}  c #FFC20F",
"|  c #FEC30F",
" . c #FFC30F",
/* pixels */
"                                                                                                    ",
"                                                                                                    ",
"          X X X X                                                                   X X X #         ",
"          X - d X                                                                   X 6 x #         ",
"          X 6 n X                                                                   X V n X         ",
"          X 2 n X X X X X X X X X X X X X # X X X X X X X X X X X X X X X X X X # X X , x X         ",
"          X s 2 0 6 2 n 6 6 d - n 6 * n x 6 0 6 6 n , , n 6 n n , 0 6 6 n > > n , x 6 * n #         ",
"          X X X X # X X X X X X X X X X X X X X X X X X X X X X X X X X # X X X # # X X X #         ",
"          X ) E R I Z M M Z R w Z R Z ~ A i R Y Z Z Z Z R Y A A M Z P e Z R Z ^ Z y R Y ) #         ",
"          X Z ) Z I Z J Z B R Z Z R Z R A i Y Y Z J Z Z R R Z L Z Z R Z Z R Z U Z y R ^ Z X         ",
"          X J J ) E M J B r R ^ Y ^ B Y B J Y Y Z J Z y U U Z L Z e U ^ U ^ Z R Z J ~ G Z X         ",
"          X Z C Z X X X @ @ @ @ X X X @ @ @ @ O X X X X X X X X X X X X X X X X X X Z Z Z X         ",
"          X y Z Z X R R U Y Y Y R R R R R R R Y U X U R U ~ R R U R R R Y R R ~ R X y Z Z X         ",
"          X E E R X J Z B Y y C L Z y Z ~ y Z Z F X L Z Z R y Z S Z e Z ~ y Z Z J X R R Y X         ",
"          X ) Z y X Z e G Y J B Z L Z J U L Z e Z X N e L U F Z Z F Z F Y L Z y Z X ~ Z e X         ",
"          X E Z Z X R U ^ Y R R R R ^ R U R U R R X R R ~ R R R R R ~ U R U R R R X R Z Z X         ",
"          X ~ Y R X w Z M M q [ R [ Z M B D B B Y @ y Z M Z y J [ M [ M M J Z Z R X W R E X         ",
"          X Z A Z X J Z t ^ m m [ Z J w B i B y ( @ D B y D Z Z Y [ J t Z t V y ^ X B B Z X         ",
"          # R R ~ X R R P R U ^ [ Y R ^ Y Y R R R @ R Y R R R ^ P [ I I ^ I I I Y @ R R ~ X         ",
"          # Z B Z X y Z R Z Z [ [ [ B Y R J Z Z y @ i A R Z Z J [ [ [ Z I J M m i @ A A Z X         ",
"          @ G i y X ~ R ^ R [ R R I [ ) ^ I R R U X ^ I ^ I ^ [ R R ^ [ ~ R R R Y X L w e X         ",
"          @ Y R R X y Z Z Z [ S M M } ) t C Z Z F X w Z Z Z M [ M Z J [ y Z Z Z J X R R Y X         ",
"          @ Y Y Y X Z L Z w m [ [ [ y ^ Z M J y Z X N F Z w Z Z [ [ [ ~ Z Z L y Z X Z Z Z X         ",
"          $ A B B X R R P ^ U I [ Y ^ ^ = ^ % ^ U X R R R ^ R I R [ R R R R ~ R R X J y y X         ",
"          # L y y X L Z Z R w Z [ B w Z ~ = Z Z K X U U P Y Y Y P } E P U P R ^ Y X Y R R X         ",
"          X E E R X Z y L R J Z [ L Z J R ~ Z w Z X S M m P i B J [ y Z ^ y Z Z L X Z A A @         ",
"          # y A Z X r Z Z B w F [ Z Z Z Z ^ Z Z R X Z t G R D B Z [ M J I S V y A X y A A #         ",
"          X R R R X J Z w G B N [ M L w Z w A e ^ X y Z B B i G R [ Z Z Z S V Z R X Y R Y #         ",
"          X ) Z i X R R R R U ^ [ I R R ~ R X R R # L Z @ J Z Z ^ [ S t Z e Z e ~ # ~ A i @         ",
"          X R Z A @ Z J ^ m e Z [ M S Z U A # X X X X X X R R ^ R [ U P ~ R R R R X Y A B @         ",
"          X ^ R R @ i A U M Z [ Z [ Z Z Y F # A y # Z L X B y Z [ M [ Z R Z w L Z X ~ R Y @         ",
"          X Z Z B @ ^ Y W E ^ U U R ^ R ~ Y Y R R # w Z R Z Z L Z B Z B R G Z Z w X Z Z B @         ",
"          X R I ^ X y Z Z M Z J B Z J R e B Z Z J X ~ R Y Y ^ Y Y I ^ I ^ I I R R X R R ^ X         ",
"          X Z Z Z X R E I ^ R I R R R R U U ^ I R X y Z Z m B D M M J R y Z Z Z J X Z Z Z X         ",
"          X F y e X K V M Z t P Z Z S w N Z m Z Z X U U I ^ U U R Y R I Y R ^ I R X L y e X         ",
"          X U U I X e V J Z Z R J w Z Z N S w S e X J Z Z Z e I M C J y B M Z B Z X E E U X         ",
"          X Z Z Z X R ^ R R R ^ I R I ^ Y R I R U X y Z J Z Z I J y Z Z Z J r D y X Z Z Z X         ",
"          X J J Z X w Z Z Z e J R Z N Z A G B Z R X E ^ R R R ^ R R R ~ I I I I R X J L Z X         ",
"          X Z Z Z X F Z y S Z Z ~ Z F e A e B w ~ X L Z y J Z Z ^ Z L w Z r B w ~ X V Z V X         ",
"          X y Z Z X R R R R I ^ R R U R ~ R R R R X E E R R R ^ R R R R Y Y Y Y U X e V V X         ",
"          X E I R X Z J ^ Z w Z B A D M R Z w J Z X Z J ^ B w Z B B G B I B w J Z X E R R X         ",
"          X ^ Z e X y Z U Z Z J B M B C R D Z Z w X w Z Y B Z L B Z Z Z R L B B e X ) Z w X         ",
"          X R Z V X ~ E ^ R ^ R Y I Y I ^ R R R R X ^ R ^ I ~ R R U ~ R ~ R R R E X E Z Z X         ",
"          X ^ Y E X y Z Z Z Z J B B D U i Z Z Z J X w Z B M Z L M Z G I w Z Z Z J X ) E E X         ",
"          X Z Z B @ Y I I ^ R R R U P I R R ^ R U X R U R ^ R R I R U I R U ~ R U X Z Z Z X         ",
"          X E R ^ @ D M Z Z w R N B S e Z Z Z Z Z X F Z Z Z y R M M S e Z Z Z Z Z X R E ) X         ",
"          X B B M @ r M S Z Z I J e B Z Z L e S e X w Z L Z Z E D i M Z Z L y F y # A A Z #         ",
"          X D r r @ Y Y P U I ^ U I I ~ R R U R U X R ^ R R E ) Y Y R Y E U Y Y Y # L e y X         ",
"          X X X X X # # X # # # # X # # @ X X X # X # # X X X # @ @ @ @ @ @ @ @ @ @ @ @ @ @         ",
"                                                                                                    "
};
