/* XPM */
static char *result[] = {
/* columns rows colors chars-per-pixel */
"50 50 191 2 ",
"   c black",
".  c #030000",
"X  c #010301",
"o  c #050200",
"O  c #0A0000",
"+  c #0A0301",
"@  c #0C0901",
"#  c #120000",
"$  c #120401",
"%  c #170701",
"&  c #1B0000",
"*  c #140C02",
"=  c #120A09",
"-  c #021303",
";  c #0D1105",
":  c #061A06",
">  c #061F07",
",  c #0D1B06",
"<  c #1F1004",
"1  c #250400",
"2  c #2E0600",
"3  c #270D03",
"4  c #300E03",
"5  c #350C02",
"6  c #271304",
"7  c #231C02",
"8  c #20150E",
"9  c #311504",
"0  c #371404",
"q  c #311809",
"w  c #371F0A",
"e  c #3E1809",
"r  c #341F10",
"t  c #0C280B",
"y  c #11250A",
"u  c #063311",
"i  c #0D3712",
"p  c #123411",
"a  c #1E3A14",
"s  c #372006",
"d  c #20310D",
"f  c #2A2014",
"g  c #312114",
"h  c #372714",
"j  c #342D12",
"k  c #243214",
"l  c #233914",
"z  c #272A2C",
"x  c #252E2C",
"c  c #2E2B2C",
"v  c #342721",
"b  c #392E23",
"n  c #401E0A",
"m  c #472009",
"M  c #41250B",
"N  c #4D280E",
"B  c #54250D",
"V  c #4A2B1E",
"C  c #433A15",
"Z  c #5A3715",
"A  c #50361E",
"S  c #772902",
"D  c #643817",
"F  c #643F15",
"G  c #67361C",
"H  c #4A3522",
"J  c #563C30",
"K  c #1E4118",
"L  c #1B451A",
"P  c #27451A",
"I  c #284018",
"U  c #21491B",
"Y  c #364D1C",
"T  c #275520",
"R  c #2C5020",
"E  c #315A24",
"W  c #2B652A",
"Q  c #366525",
"!  c #38642A",
"~  c #376D2E",
"^  c #377332",
"/  c #367837",
"(  c #454118",
")  c #724618",
"_  c #7B4C1F",
"`  c #544621",
"'  c #4F502B",
"]  c #554230",
"[  c #634220",
"{  c #684425",
"}  c #6D4B2E",
"|  c #734521",
" . c #744722",
".. c #754B25",
"X. c #7B4C24",
"o. c #784F2A",
"O. c #704E30",
"+. c #685439",
"@. c #6E5F3F",
"#. c #7D5331",
"$. c #785736",
"%. c #426429",
"&. c #4B6B2D",
"*. c #447934",
"=. c #437C35",
"-. c #487E36",
";. c #507030",
":. c #5A7637",
">. c #537E37",
",. c #7C693C",
"<. c #28344A",
"1. c #4F3C49",
"2. c #5C4F4D",
"3. c #405243",
"4. c #624444",
"5. c #6B5C58",
"6. c #75675E",
"7. c #842801",
"8. c #885523",
"9. c #8F5B22",
"0. c #835429",
"q. c #8A5B2E",
"w. c #945F24",
"e. c #9B6325",
"r. c #8A6237",
"t. c #9C6A3E",
"y. c #A26829",
"u. c #B2742E",
"i. c #A2753C",
"p. c #CC430C",
"a. c #F96410",
"s. c #DB6A22",
"d. c #E57629",
"f. c #876645",
"g. c #9C734A",
"h. c #956C52",
"j. c #9C7C52",
"k. c #A67846",
"l. c #A57B56",
"z. c #826E68",
"x. c #4B8339",
"c. c #538439",
"v. c #558E3F",
"b. c #7D8538",
"n. c #4E9040",
"m. c #559140",
"M. c #739543",
"N. c #8F863C",
"B. c #AB843D",
"V. c #8D9945",
"C. c #A6904D",
"Z. c #B88A58",
"A. c #9DA54C",
"S. c #96AC4F",
"D. c #A7B250",
"F. c #BDB755",
"G. c #998B62",
"H. c #A89968",
"J. c #B09667",
"K. c #BC9065",
"L. c #C7BC57",
"P. c #D1BD58",
"I. c #D39C67",
"U. c #C49D70",
"Y. c #C9AB78",
"T. c #D3AE79",
"R. c #DCB77B",
"E. c #E3B97F",
"W. c #CAC85D",
"Q. c #D7C85C",
"!. c #D5CB5E",
"~. c #D3D361",
"^. c #DCB383",
"/. c #EBBB86",
"(. c #DBC287",
"). c #ECC789",
"_. c #F6C980",
"`. c #F0C08C",
"'. c #FCC88C",
"]. c #FCD093",
"[. c #FADC99",
"{. c #FFE697",
"}. c #FFE49E",
"|. c #FFE6A3",
" X c #FFEAA3",
".X c #FFFDB2",
"XX c #FFFFBD",
"oX c #FFFFCB",
"OX c #FFFFD9",
"+X c white",
"@X c None",
/* pixels */
"@X@X@X@X@X@X@X@X@X@X@X@X@X@X@X@X@X@X@X@X@X@X@X@X@X@X@X@X@X@X@X@X@X@X@X@X@X@X@X@X@X@X@X@X@X@X@X@X@X@X",
"@X@X@X@X@X@X@X@X@X@X@X@X@X@X@X@X@X@X@X@X@X@X@X@X@X@X@X@X@X@X@X@X@X@X@X@X@X@X@X@X@X@X@X@X@X@X@X@X@X@X",
"@X@X@X@X@X@X@X@X@X@X@X@X@X@X@X@X@X@X@X@X@X@X@X@X@X@X@X@X@X@X@X@X@X@X@X@X@X@X@X@X@X@X@X@X@X@X@X@X@X@X",
"@X@X@X@X@X@X@X@X@X@X@X@X@X@X@X@X@X@X@X@X@X@X@X@X@X@X@X@X@X@X@X@X@X@X@X@X@X@X@X@X@X@X@X@X@X@X@X@X@X@X",
"@X@X@X@X@X@X@X@X@X@X@X@X@X@X@X@X@X@X@X@X@X@X@X@X@X@X@X@X@X@X@X@X@X@X@X@X@X@X@X@X@X@X@X@X@X@X@X@X@X@X",
"@X@X@X@X@X@X@X@X@X@X@X@X@X@X@X@X@X@X@X@X@X@X@X@X@X@X@X@X@X@X@X@X@X@X@X@X@X@X@X@X@X@X@X@X@X@X@X@X@X@X",
"@X@X@X@X@X@X@X@X@X@X@X@X@X@X@X@X@X@X@X@X@X@X@X@X@X@X@X@X@X@X@X@X@X@X@X@X@X@X@X@X@X@X@X@X@X@X@X@X@X@X",
"@X@X@X@X@X@X@X@X@X@X@X@X@X@X@X@X@X@X@X@X@X@X@X@X@X@X@X@X@X@X@X@X@X@X@X@X@X@X@X@X@X@X@X@X@X@X@X@X@X@X",
"@X@X@X@X@X@X@X@X@X@X@X@X@X@X@X@X@X@X@X@X@X@X@X@X@X@X@X@X@X@X@X@X@X@X@X@X@X@X@X@X@X@X@X@X@X@X@X@X@X@X",
"@X@X@X@X@X@X@X@X@X@X@X@X@X@X@X@X@X@X@X@X@X@X@X@X@X@X@X@X@X@X@X@X@X@X@X@X@X@X@X@X@X@X@X@X@X@X@X@X@X@X",
"@X@X@X@X@X@X@X@X@X@X@X@X@X@X@X@X@X@X@X@X@X@X              @X@X@X@X@X@X@X@X@X@X@X@X@X@X@X@X@X@X@X@X@X",
"@X@X@X@X@X@X@X@X@X@X@X@X@X@X@X@X@X@X@X@X@X. w r w q % < % . @X@X@X@X@X@X@X@X@X@X@X@X@X@X@X@X@X@X@X@X",
"@X@X@X@X@X@X@X@X@X@X@X@X@X@X@X@X@X@X@X@X. < q.q.q.D 0 n w < . @X@X@X@X@X@X@X@X@X@X@X@X@X@X@X@X@X@X@X",
"@X@X@X@X@X@X@X@X@X@X@X@X@X@X@X@X@X@X@X  $ N _ X.N 0 n 2 6 w 3   @X@X@X@X@X@X@X@X@X@X@X@X@X@X@X@X@X@X",
"@X@X@X@X@X@X@X@X@X@X@X@X@X@X@X@X@X@X@X  $ 0 5 4 # @.).G 5 m q   @X@X@X@X@X@X@X@X@X@X@X@X@X@X@X@X@X@X",
"@X@X@X@X@X@X@X@X@X@X@X@X@X@X@X@X@X@X@X  +.).K.g.l.).XXR.o.m 3   @X@X@X@X@X@X@X@X@X@X@X@X@X@X@X@X@X@X",
"@X@X@X@X@X@X@X@X@X@X@X@X@X@X@X@X@X@X@X  @.).Z.]./.Z.K..Xk.B 4   @X@X@X@X@X@X@X@X@X@X@X@X@X@X@X@X@X@X",
"@X@X@X@X@X@X@X@X@X@X@X@X@X@X@X@X@X@X@X  $ 1 H |.f.. ] [.t.0.[   @X@X@X@X@X@X@X@X@X@X@X@X@X@X@X@X@X@X",
"@X@X@X@X@X@X@X@X@X@X@X@X@X@X@X@X@X@X@X    z +XXX7 <.+X`.) U.U.  @X@X@X@X@X@X@X@X@X@X@X@X@X@X@X@X@X@X",
"@X@X@X@X@X@X@X@X@X@X@X@X@X@X@X@X@X@X@X    z OX|.@ x OX[.0.I.^.  @X@X@X@X@X@X@X@X@X@X@X@X@X@X@X@X@X@X",
"@X@X@X@X@X@X@X@X@X@X@X@X@X@X@X@X@X@X@X  b H._.'.J.H.{.}.O.X.f.  @X@X@X@X@X@X@X@X@X@X@X@X@X@X@X@X@X@X",
"@X@X@X@X@X@X@X@X@X@X@X@X@X@X@X@X@X@X@X  G..Xk.l.E.}. XT.G & O   @X@X@X@X@X@X@X@X@X@X@X@X@X@X@X@X@X@X",
"@X@X@X@X@X@X@X@X@X@X@X@X@X@X@X@X@X@X@X  G.[. .D D Z.[. .n +     @X@X@X@X@X@X@X@X@X@X@X@X@X@X@X@X@X@X",
"@X@X@X@X@X@X@X@X@X@X@X@X@X@X@X@X@X@X@X  9 Z.}.{. XR. .    ; K a       @X@X@X@X@X@X@X@X@X@X@X@X@X@X@X",
"@X@X@X@X@X@X@X@X@X@X@X@X@X@X@X@X@X@X@X@X  s l.j.G.O.. : : t R K   7.S   @X@X@X@X@X@X@X@X@X@X@X@X@X@X",
"@X@X@X@X@X@X@X@X@X@X@X@X@X@X@X@X@X@X@X@X@X    2 &   X a T L t : 6 d.s.5 @X@X@X@X@X@X@X@X@X@X@X@X@X@X",
"@X@X@X@X@X@X@X@X@X@X@X@X@X@X@X@X@X@X@X@X@ ; @ 4   - K K >.>.y   G i.d.p.  @X@X@X@X@X@X@X@X@X@X@X@X@X",
"@X@X@X@X@X@X@X@X@X@X@X@X@X@X@X@X@X@X@X  ( W.P.. t -.~ ~ F.Q.b.t   h s.a.  @X@X@X@X@X@X@X@X@X@X@X@X@X",
"@X@X@X@X@X@X@X@X@X@X@X@X@X@X@X@X@X@X@X  ; &.M.C.L.Q.F.W.V.;.Y p   4 B 5 @X@X@X@X@X@X@X@X@X@X@X@X@X@X",
"@X@X@X@X@X@X@X@X@X@X@X@X@X@X@X@X@X@X  @ a W / S.V.N.A.A.Q u a E L 7 X @X@X@X@X@X@X@X@X@X@X@X@X@X@X@X",
"@X@X@X@X@X@X@X@X@X@X@X@X@X@X@X@X@X@X  t E ! ! ^ i i ^ ^ K , a v.n.>   @X@X@X@X@X@X@X@X@X@X@X@X@X@X@X",
"@X@X@X@X@X@X@X@X@X@X@X@X@X@X@X@X@X@X  a ,   a *.K K x.*.I X X =.v.,   @X@X@X@X@X@X@X@X@X@X@X@X@X@X@X",
"@X@X@X@X@X@X@X@X@X@X@X@X@X@X@X@X@X@X  b.'   a -.R P -.-.T   X x.~.j   @X@X@X@X@X@X@X@X@X@X@X@X@X@X@X",
"@X@X@X@X@X@X@X@X@X@X@X@X@X@X@X@X@X  F B.Z   a R p P -.x.R   7 ~.Z.r.h   @X@X@X@X@X@X@X@X@X@X@X@X@X@X",
"@X@X@X@X@X@X@X@X@X@X@X@X@X@X@X@X] c f.h.v   p p K ! =.! U X , C.{ i.[   @X@X@X@X@X@X@X@X@X@X@X@X@X@X",
"@X@X@X@X@X  o 8 c c 2.6.5.5.5.5.5.5.6.z.v   I l %.c.&.d l k .   g r.`   @X@X@X@X@X@X@X@X@X@X@X@X@X@X",
"@X@X@X@X@X  ) 8.  @X@X@X@X@X@X@X@XX r.k.h   X.0.X.X.| n e B <   ..i.A   @X@X@X@X@X@X@X@X@X@X@X@X@X@X",
"@X@X@X@X@X  _ 9.  @X@X@X@X@X@X@X    . + . . B B 4.4.m d d o g (.].'.f.  @X@X@X@X@X@X@X@X@X@X@X@X@X@X",
"@X@X@X@X@X@Xs D F   @X@X@X@X@X  $ | Z n .   Y g ! ' 5 3./   8 oXoXXXl.  @X@X@X@X@X@X@X@X@X@X@X@X@X@X",
"@X@X@X@X@X@X@X< 9.w @X@X@X@X6 9 M w.9.) n l / i W E h 1.:.l H Y.Y.Y.+.  @X@X@X@X@X@X@X@X@X@X@X@X@X@X",
"@X@X@X@X@X@X@X@Xo y.s o o . w.e.s       ` D.x.I %.m.>.B G C.b.        @X@X@X@X@X@X@X@X@X@X@X@X@X@X@X",
"@X@X@X@X@X@X@X@X@X+ _ u.e.F * + . @X@X  = @.!.!.Q.!.~.Q.6.4.h   @X@X@X@X@X@X@X@X@X@X@X@X@X@X@X@X@X@X",
"@X@X@X@X@X@X@X@X@X@X6 M s < @X@X@X@X@X  < ] ,.` ( C ( ( J ] v X   @X@X@X@X@X@X@X@X@X@X@X@X@X@X@X@X@X",
"@X@X@X@X@X@X@X@X@X@X@X      @X@X@X@X@X  g O.V           $ w A V . @X@X@X@X@X@X@X@X@X@X@X@X@X@X@X@X@X",
"@X@X@X@X@X@X@X@X@X@X@X@X@X@X@X@X@X@X@X  q 8.X.o @X@X@X@X  $ D X.+ @X@X@X@X@X@X@X@X@X@X@X@X@X@X@X@X@X",
"@X@X@X@X@X@X@X@X@X@X@X@X@X@X@X@X@X@X@X  $ Z X.o @X@X@X@X  M 0.n   @X@X@X@X@X@X@X@X@X@X@X@X@X@X@X@X@X",
"@X@X@X@X@X@X@X@X@X@X@X@X@X@X@X@X@X@X@X  6 8.X.o @X@X@X@X  N q.H   @X@X@X@X@X@X@X@X@X@X@X@X@X@X@X@X@X",
"@X@X@X@X@X@X@X@X@X@X@X@X@X@X@X@X@X@X  f J #.} . @X@X@X@X  g $.]   @X@X@X@X@X@X@X@X@X@X@X@X@X@X@X@X@X",
"@X@X@X@X@X@X@X@X@X@X@X@X@X@X@X@X@X@X  f b f f . @X@X@X@X  * b g   @X@X@X@X@X@X@X@X@X@X@X@X@X@X@X@X@X",
"@X@X@X@X@X@X@X@X@X@X@X@X@X@X@X@X@X@X            @X@X@X@X          @X@X@X@X@X@X@X@X@X@X@X@X@X@X@X@X@X"
};
