/* XPM */
static char *a50d933e64c446b8b2eea73b3c44c926C1DUmUCwPhkLdoSu[] = {
/* columns rows colors chars-per-pixel */
"50 50 207 2 ",
"   c #04041D",
".  c #0C021D",
"X  c #0C091F",
"o  c #1D041F",
"O  c #13051D",
"+  c #0D0921",
"@  c #130721",
"#  c #140B22",
"$  c #1A0E24",
"%  c #091825",
"&  c #1C1125",
"*  c #1D1D28",
"=  c #260221",
"-  c #2F0321",
";  c #230D24",
":  c #2A0C23",
">  c #380A25",
",  c #231426",
"<  c #2A1527",
"1  c #261827",
"2  c #2D1B27",
"3  c #271628",
"4  c #2B1628",
"5  c #241E2B",
"6  c #2C1929",
"7  c #331126",
"8  c #321629",
"9  c #3B1428",
"0  c #341C2A",
"q  c #3B1E2C",
"w  c #311E27",
"e  c #18272B",
"r  c #1A3C33",
"t  c #183231",
"y  c #2B242C",
"u  c #23292E",
"i  c #22212B",
"p  c #35222B",
"a  c #3C232C",
"s  c #3B2A2E",
"d  c #282C32",
"f  c #362E32",
"g  c #3D2D31",
"h  c #243432",
"j  c #223A34",
"k  c #2C3D36",
"l  c #2B3433",
"z  c #3B3B35",
"x  c #353434",
"c  c #400D27",
"v  c #431D2B",
"b  c #4A1B2B",
"n  c #421428",
"m  c #541E2D",
"M  c #43242E",
"N  c #4A252F",
"B  c #44292D",
"V  c #4B2B2F",
"C  c #51242F",
"Z  c #522A2E",
"A  c #59202D",
"S  c #53302F",
"D  c #4A2730",
"F  c #432F31",
"G  c #4D2930",
"H  c #462730",
"J  c #532D31",
"K  c #582F32",
"L  c #463233",
"P  c #4D3433",
"I  c #543132",
"U  c #5B3432",
"Y  c #543A35",
"T  c #5D3935",
"R  c #65342F",
"E  c #623634",
"W  c #693730",
"Q  c #643A34",
"!  c #6B3D35",
"~  c #643E38",
"^  c #713F35",
"/  c #12473A",
"(  c #174435",
")  c #1B563F",
"_  c #16533D",
"`  c #0D493C",
"'  c #214336",
"]  c #2A4037",
"[  c #234539",
"{  c #284C3A",
"}  c #324538",
"|  c #3A4A39",
" . c #2C543B",
".. c #27593C",
"X. c #28663F",
"o. c #5D4339",
"O. c #5D4037",
"+. c #4C533C",
"@. c #6E4135",
"#. c #65443A",
"$. c #6C453B",
"%. c #65493B",
"&. c #6C4A3C",
"*. c #744436",
"=. c #794637",
"-. c #7A4837",
";. c #744538",
":. c #794738",
">. c #734C3D",
",. c #7C4A38",
"<. c #74523F",
"1. c #7C543E",
"2. c #0E5D40",
"3. c #175C41",
"4. c #265C41",
"5. c #156744",
"6. c #1B6443",
"7. c #1D6A44",
"8. c #156945",
"9. c #1F7246",
"0. c #226542",
"q. c #2B6342",
"w. c #236A42",
"e. c #286E41",
"r. c #386743",
"t. c #257244",
"y. c #2C7544",
"u. c #2D7D46",
"i. c #287B49",
"p. c #307645",
"a. c #327C45",
"s. c #387B46",
"d. c #3C7A49",
"f. c #765440",
"g. c #7B5441",
"h. c #7D5842",
"j. c #536845",
"k. c #457B4A",
"l. c #4D7B47",
"z. c #5B7245",
"x. c #824D39",
"c. c #85523B",
"v. c #8B543C",
"b. c #8C593F",
"n. c #91563C",
"m. c #925C3F",
"M. c #825C43",
"N. c #8C5D42",
"B. c #835742",
"V. c #915E41",
"C. c #995D42",
"Z. c #856045",
"A. c #8B6245",
"S. c #8E6948",
"D. c #8A6B49",
"F. c #946444",
"G. c #996543",
"H. c #926947",
"J. c #9B6946",
"K. c #956C49",
"L. c #9A6D49",
"P. c #9C724B",
"I. c #96734C",
"U. c #A16B47",
"Y. c #A3734B",
"T. c #A9764C",
"R. c #AA794E",
"E. c #B2784D",
"W. c #AB7D50",
"Q. c #2E834B",
"!. c #348147",
"~. c #338349",
"^. c #3F834A",
"/. c #3C8549",
"(. c #3B914D",
"). c #3D9A51",
"_. c #46834A",
"`. c #468D4B",
"'. c #4D8D4C",
"]. c #518B4E",
"[. c #4B944D",
"{. c #48954E",
"}. c #53944E",
"|. c #59924F",
" X c #539A4D",
".X c #5D8D50",
"XX c #4C9250",
"oX c #559551",
"OX c #539951",
"+X c #5A9A51",
"@X c #62924E",
"#X c #629D52",
"$X c #5CA24F",
"%X c #54A153",
"&X c #5EA552",
"*X c #58AB54",
"=X c #64A352",
"-X c #6BA454",
";X c #64AA52",
":X c #6BAB53",
">X c #73AD56",
",X c #6CB352",
"<X c #71B653",
"1X c #73BA54",
"2X c #AF8151",
"3X c #B58251",
"4X c #BA8653",
/* pixels */
",X,X,X<X1X<X,X,X,X,X1X<X<X,X:X,X,X,X<X<X,X,X,X<X1X,X:X,X1X1X1X<X,X,X=X=X1X1X,X,X,X,X,X,X,X,X,X,X<X1X",
",X<X<X$X X X$X:X,X$X X X;X,X,X,X:X:X:X;X,X,X;X X{.,X<X;X X{. X$X:X<X|.s.{.&X,X,X,X,X,X;X:X,X,X;X&X X",
",X<X;X!.7.y.].-X<X[.w.0.`.<X1X;X|.|.|.|.:X<X#XX...;X1X|.4._ y.}.>X<Xs.` / _.1X1X-X|.oXoXoX:X<X+Xd.t.",
".X].s.w.7.!.}.-X-X_.X._ d.-X>X'.e.a./.X.|.:X-X| f @X*Xs.f d 6.[.>X-X~./ 3 +.,X,Xz.L r.i.w.oX>X-Xd.6.",
"k.s.t.[ r  ._. XoXs.0.3.d.-XoXr.r X.i.t._.%X%Xz 7 l.).6.2 : r d.OX[.r.h 9 %.*X%X| ; ..7.r r.OXXX..t ",
"p.!.y.y = :  .~.p.w.3.3.k.&X/.k ;  .~.a.y.!.a.e X q.~.4.% o : ' 9.i.| 9 9 j.*X(.r . /  .v ] 6.6.e . ",
"a.u.w.5 - n  .t.p.t.3.u } p.t.r ; ' ~.]. .i u , e 6.4.g & ; b p ' 9.| c @ { `.i.( ; y g v & % e * ; ",
"u.X.' y n N [ 5.y.q.h : u 5.5.k 8 ' y._.z - > < y { k 9 0 a J b p { f : . r i.4.h < 9 b s ; $ 7 8 2 ",
"7.[ < b C D { 8.6.j : : j 6.5.} C { 8.6.z m C 0 3 a 0 < M J G M q a & . ; ' 6.f 8 4 q a a M J C 0 , ",
"t i < 9 U N.D.j.2.e - 9 [ 3.k 0 4 ..0.z I C 8 & , < 3 4 M G M M M q , , M x x H 7 & 0 H J K J 0 , & ",
": , 3 N >.Y.E.D.r.h 8 b | r.T A p / [ C b a a p 0 3 , 6 D U J U G a 6 0 G b v J G p w q M H a w w p ",
"b 4 2 Z.J.,.=.v.K.&.v q &.I.P.Y.H.f @ , $ a S.F.! N 4 2 Q ,.*.:.! H 6 6 M M D ! ,.;.p @ + # p ! =.*.",
"B.I 4 c.F.*.! x.C.U p &.N.C.V.G.G.,.H & F <.H.m.x.! a 1 @.v.,.,.,.Q 0 3 U Q Q =.c.x.Q 2 X 4 T x.x.x.",
"R.%., K ,.-.-.,.:.0 p L.G.^ ^ ! :.T.h.3 <.T.,.*.,.c.V , E x.,.-.,.x.B 2 *.c.,.=.=.,.c.Q 6 T v.,.-.,.",
"c.S $ q ! ,.x.,.:.J V x.c.*.*.*.=.v.;.H *.n.x.-.x.x.V & M ! ,.x.,.x.I D =.x.,.=.=.=.c.! H @.v.,.,.,.",
"B.<.Y 3 q ! @.! U M 0 K *.x.,.,.,.^ J 0 q Z Q Q Q =.~ a 4 a ! *.! Q H a U =.,.,.,.,.*.U q B I ! ! ! ",
"K.T.L.s , H M N G p 4 q E ,.,.,.=.J q 4 * 4 M M J *.c.=.p 3 M N D D w , a Q ,.,.,.:.J q 1 , 6 M V V ",
"c.c.N.H.&.; + p Z.K.f.M 8 a I E I $ p M.K.%.$ M *.=.,.x.*.S , $ 0 ! *.T H q a I Q I 4 2 Q @.S , < w ",
"*.*.:.J.>.3 6 o.L.R.L.&.a $ 4 8 4 a %.P.E.A.L I *.,.,.,.x.U 6 1 V ,.v.x.E 8 # 6 a 8 0 I c.v.=.M , O ",
"*.*.*.J M D A.L.,.^ c.Y.#.$ $ $ 3 M.Y.,.*.c.P.$.N ! x.*.I M D ! ,.,.:.x.x.a   $ & , ~ x.,.,.,.,.p   ",
"Z J D 4 4 J N.C.,.! ,.G.P @ o.M.f.#.! *.*.-.V.~ M G U J 8 6 J :.c.,.:.,.v.B + N Q U I Q ,.,.x.x.a   ",
"I T I 4 3 M U W Q =.,.^ H L H.3XP.~ J ! -.,.=.U H D J G 2 6 H Q ;.@.*.,.*.P a *.b.,.J J @.,.x.x.a   ",
"K.P.K.I 4 3 a M N ! *.N >.L.c.*.,.L.M.G Q x.x.U M ! ,.*.J p 4 a D D @.=.Z U :.,.,.,.=.Q G ! c.x.a   ",
"A.N.F.N.T & T M.g.~ b 4 @.J.,.! *.G.1.8 N Q E U Q ,.,.,.;.H , D Q Q U G 2 U c.,.*.,.c.! 8 G @.Q w   ",
"*.^ ,.Y.<., <.3XT.>.a & B :.,.,.,.,.I & 4 v H Q c.-.*.,.c.U 1 T v.x.E q , D ,.,.,.-.x.U & 4 N V 1 X ",
"*.*.:.v.Q , ~ v.c.J.M.2 4 J :.x.x.E q $ # ; H ^ x.,.*.,.v.U , T c.,.x.E 6 0 U ,.c.,.W a & $ 8 V 2 X ",
":.,.,.^ M , N ! =.G.A.0 $ q E *.Q 8 6 o.f.L 2 H @.,.x.,.*.V , Z *.x.v.;., & a U *.! a 2 V S B p & X ",
"*.,.*.G 8 , 0 S =.x.~ 6 $ , M D M , L Y.4XM.2 4 G *.x.*.J 8 , w J :.v.Q +   , H D M 1 a ,.b.@.w X X ",
"U U J 4 @ $ & p U E G & + $ 3 , 4 f.S.c.x.N.A.P < J Q J 6 $ & & 0 U Q D     , 2 & # S =.,.,.,.@.w   ",
"0 0 v L Y Y w 3 q 4 0 I o.I 2 @ 3 M.U.*.W x.Y.O.$ < 0 w a B B 0 2 a q 0 w a M 0 + + Q v.-.*.x.v.a   ",
", 4 G H.2XY.@.q , # a H.3XL.U 4 , Q x.=.*.,.x.P $ + + 6 ! v.,.U a 3 $ w =.c.:.I 2 1 Q c.-.*.,.x.a   ",
"0 T A.N.N.C.L.&., P M.N.N.N.F.#.M Q x.=.*.,.x.G & # a Q ,.x.c.c.U , a ! x.x.,.*.I M @.x.-.=.x.x.a   ",
"D f.U.x.R E N.>., &.T.:.W ,.Y.B.G E *.,.,.,.=.H & # P v.x.*.! =.U & U c.,.*.,.c.! G E :.,.,.x.*.w X ",
"D E x.x.Q M N a , I x.,.*.=.,.! N M U ,.x.;.J 0 & + M v.c.! D D a , U x.,.=.,.,.! D H U ,.x.*.J 1 X ",
"2 H U C T M.M.T 2 K x.x.! G Z q , 3 M E ! J < & #   & V K U Q ~ J 0 U c.x.! I U H 6 # w Q ^ U 4 # X ",
", 6 M G &.Y.R.A.U Q *.^ U I U G p & , M M q p a w & X , a W ,.c.*.J Q ,.;.U D G B 2 X + q M a 0 & X ",
"v 4 y M.L.,.=.b.L.>.b q $.L.P.P.H.p @ , @ a S.F.! N 3 1 E ,.,.,.,.=.U G H U *.=.:.@.w + + # a @.a   ",
"B.P 3 c.G.*.! x.F.P 6 #.N.H.H.F.H.1.L & g <.H.n.,.*.a 4 @.v.-.*.,.,.D 2 J ;.,.,.x.x.Q a + 6 ~ c.B   ",
"R.#., U ,.=.-.,.=.0 p K.F.^ ^ ! =.Y.h.6 <.R.,.*.,.x.V , T x.-.-.,.,.a 2 *.c.=.;.=.,.c.Q 6 E n.x.p   ",
"B.J @ q ! ,.x.,.:.J V c.x.*.*.*.=.b.;.M ;.n.,.=.x.x.V & M ! ,.,.,.,.I G =.,.=.=.=.=.c.! D ;.n.x.p   ",
"N.>.I 4 q ! @.! E q 0 U *.x.,.,.,.^ J 0 q Z ! Q Q :.! s 4 a ^ @.~ Q M q U =.x.,.,.,.;.U q H U ;.p X ",
"K.T.I.s , M H D G p 3 q E ,.-.,.:.J 0 6 , 4 M M J ;.c.,.p 3 H D D D w 3 a Q ,.,.,.=.J p 3 & 2 H 4 X ",
"c.c.N.F.&., + 0 A.K.f.M 8 a J Q J ; 0 M.K.%.$ M *.,.,.,.;.J , # q ! ;.U H q a I E J 4 6 ~ @.I 3 X X ",
"*.! :.J.f., 6 T L.T.L.;.a $ 4 8 2 a %.Y.R.A.L I *.,.,.,.x.U 4 3 V ,.v.x.E 2 @ 2 p 0 0 I x.v.=.M & X ",
"*.=.*.J v V A.Y.,.^ c.T.%.$ $ $ 3 M.Y.,.*.c.Y.&.N @.x.=.J H D ^ ,.-.,.,.x.a   & , 3 Q x.,.-.x.,.p   ",
"Z J N 3 < K c.F.,.! ,.F.G $ o.h.f.#.~ =.*.-.V.~ v G U J 2 2 J :.v.,.-.,.v.B X V E U I Q ,.,.x.x.a   ",
"U T U 6 3 M U ! ! *.,.^ N L S.3XY.T Z ^ *.,.-.U M D J D 2 4 B Q @.@.*.,.*.V a *.b.x.J J *.,.x.x.a   ",
"K.P.H.I < < q N N ! *.V &.P.c.*.,.L.h.G Q x.,.I D @.,.;.J 0 4 a D D @.=.J U =.-.,.-.=.Q D Q x.x.a   ",
"N.N.N.N.Y , U h.f.@.G 4 T F.,.! *.V.&.w M E U E ! -.,.,.*.V , V ! ~ Q J 4 I x.,.*.,.x.E w N ! Q 2 + ",
"*.! :.T.f.3 f.4XW.&.8 $ N :.,.=.-.,.U , 0 N M Q x.-.=.,.c.I , T v.x.E 0 & V ,.,.*.,.x.T , w G D ,   "
};
